<svg width="113" height="106" viewBox="0 0 113 106" fill="none" xmlns="http://www.w3.org/2000/svg">
<path d="M108.386 61.2243C107.685 43.7169 85.626 47.9432 83.1358 38.4643C80.6455 28.9854 73.88 21.3586 65.1286 20.8543C56.3772 20.35 55.3686 25.683 45.4925 32.5378C42.6853 34.5228 39.3313 35.5878 35.8932 35.5858C26.4678 36.1035 17.5959 37.2861 13.5125 49.2195C12.1933 53.5998 11.8305 58.2124 12.4488 62.7451C13.067 67.2778 14.6519 71.6247 17.0961 75.4917C18.7298 78.0524 20.7295 80.3603 23.0315 82.342C23.5626 82.7883 24.1115 83.2345 24.6783 83.6808C24.9416 83.8772 25.2049 84.0735 25.4771 84.2654C42.5784 96.6406 50.3257 84.2654 71.7558 86.4968C79.7887 87.3269 87.0808 86.4433 92.9806 84.0735C93.4269 83.8995 93.8731 83.7165 94.2747 83.5246C103.33 79.4144 108.81 71.6582 108.386 61.2243Z" fill="#C7CEFF"/>
<mask id="mask0_233_29146" style="mask-type:alpha" maskUnits="userSpaceOnUse" x="12" y="2" width="97" height="88">
<path d="M108.383 61.2242C107.682 43.7168 85.623 29.6458 83.1328 20.1669C80.6426 10.6881 73.8771 3.06125 65.1257 2.55696C56.3742 2.05267 55.3656 7.38564 45.4896 14.2404C42.6824 16.2254 39.3284 17.2904 35.8902 17.2885C26.4649 17.8061 17.593 37.286 13.5096 49.2194C12.1903 53.5997 11.8276 58.2123 12.4458 62.745C13.0641 67.2776 14.649 71.6246 17.0932 75.4916C18.7269 78.0523 20.7266 80.3602 23.0286 82.3419C23.5597 82.7882 24.1086 83.2344 24.6754 83.6807C24.9387 83.8771 25.202 84.0734 25.4742 84.2653C42.5754 96.6405 50.3227 84.2653 71.7528 86.4967C79.7858 87.3268 87.0779 86.4431 92.9777 84.0734C93.4239 83.8994 93.8702 83.7164 94.2718 83.5245C103.327 79.4143 108.807 71.6581 108.383 61.2242Z" fill="#E7E9F8"/>
</mask>
<g mask="url(#mask0_233_29146)">
<path d="M-9.23579 65.9229C-27.8622 75.8237 -40.8198 72.1934 -70.7841 62.2925L-92.6499 111.137L79.0374 126.648L182.698 78.1339C172.71 68.8931 148.36 52.7876 130.868 62.2925C109.002 74.1737 93.6146 71.8634 61.2208 63.2826C28.827 54.7019 9.39067 56.022 -9.23579 65.9229Z" fill="#BAC3FF"/>
<path d="M28.2759 89.9473C10.9387 101.964 -2.35513 99.8773 -33.2735 93.5576L-49.2624 144.628L123.06 139.905L220.317 79.5729C209.315 71.5668 183.245 58.427 166.988 69.9171C146.665 84.2797 131.114 83.7893 97.9371 79.0653C64.7607 74.3414 45.6132 77.931 28.2759 89.9473Z" fill="#C7CEFF"/>
<path d="M49.6415 43.9446C49.6415 43.9446 43.1616 47.3229 43.1616 54.4499C43.1616 61.5769 48.6151 63.9823 63.1681 63.3352C77.7211 62.6881 99.477 64.8035 95.8042 48.6082C92.1313 32.4129 85.7362 18.864 66.2697 20.4572C51.4132 21.6711 37.9759 27.3164 48.9944 39.4149C48.9944 39.4149 48.9944 24.7236 60.8743 22.9965C60.8743 22.9965 64.1142 33.1492 73.1869 34.6621L73.4012 40.4949L75.7798 55.1907L62.1685 56.0476C62.1685 56.0476 51.7881 55.8244 49.6415 43.9446Z" fill="#5F352C"/>
<path d="M80.6745 69.7975C82.4328 75.4027 85.3603 89.1569 85.3603 89.1569L75.0425 89.3175L72.1372 67.8607L70.187 59.502C70.187 59.502 77.4836 59.6091 80.6745 69.7975Z" fill="#FF6D25"/>
<path d="M57.5908 96.2519C57.5908 96.2519 58.2513 88.4511 58.7823 84.6488C59.8846 76.7631 60.1212 68.7213 60.1212 68.7213C60.6748 69.4412 61.0527 70.2805 61.2247 71.1723C61.3967 72.0641 61.3581 72.9837 61.1119 73.8579C58.6663 73.2108 58.287 73.2733 56.8901 72.9386C57.3944 70.4528 57.2293 69.1274 58.0638 66.6506C58.8984 64.1737 61.3707 61.3622 65.173 60.1082L69.4751 59.7065C69.7159 59.7557 69.9508 59.8306 70.1757 59.9297C70.7905 60.0994 71.417 60.2231 72.0501 60.3001C72.0319 60.6289 72.0852 60.9578 72.2063 61.264C72.8882 62.8949 73.7457 64.4466 74.7634 65.8919C75.0482 66.3173 75.4211 66.6765 75.8568 66.9451L76.7181 67.5699L80.0161 96.4349L57.5908 96.2519Z" fill="#FF6D25"/>
<path d="M71.2128 64.0492C70.1783 64.5302 69.0512 64.7795 67.9104 64.7795C66.7695 64.7795 65.6424 64.5302 64.6079 64.0492L65.0319 59.7159L64.9739 56.0073H71.0521L71.2128 64.0492Z" fill="#EAA996"/>
<path d="M71.0392 56.0918L71.1819 60.086C69.1871 61.3132 65.5634 60.5769 65.0278 59.7647V57.3905L71.0392 56.0918Z" fill="#B2655D"/>
<path d="M72.9941 89.778L64.6399 88.5641C64.6399 88.5641 64.1936 79.7234 64.1535 73.0204C64.1404 69.6766 64.3327 66.3351 64.7291 63.0149C65.5771 64.6259 68.8036 64.7643 71.2715 62.7114L72.9941 89.778Z" fill="white"/>
<path d="M72.537 96.4227H64.9458L64.2095 78.7368H71.8274L72.537 96.4227Z" fill="#F8CD5A"/>
<path d="M65.5786 83.2744L67.5244 84.0599L67.8859 87.63" stroke="#B28F42" stroke-width="1.09544" stroke-linecap="round" stroke-linejoin="round"/>
<path d="M71.1754 59.6631C71.1754 59.6631 68.0515 65.7681 70.8139 88.4522C73.5763 111.136 76.5173 76.9071 76.5173 76.9071L71.1754 59.6631Z" fill="#FF6D25"/>
<path d="M49.9593 43.0432C49.9593 43.0432 44.488 41.8472 44.0729 46.3189C43.6936 50.4291 47.1701 51.5269 50.3208 50.5361C53.4715 49.5454 49.9593 43.0432 49.9593 43.0432Z" fill="#EAA996"/>
<path d="M49.6452 40.2312C49.6452 40.2312 44.7674 58.9747 66.0904 58.9747C82.5177 58.9747 85.0927 50.1429 85.0927 50.1429C85.0927 50.1429 91.3718 50.3571 91.3718 45.3455C91.3718 40.3338 87.0876 41.2621 85.6997 42.3643C85.6997 42.3643 77.4971 32.1938 74.9891 32.0331C73.7351 31.9528 63.6671 26.5573 57.4282 29.5607C51.1893 32.5642 49.6452 40.2312 49.6452 40.2312Z" fill="#EAA996"/>
<path d="M56.0698 51.1789C56.0698 51.1789 69.2885 50.2864 73.8271 49.0234C73.8271 49.0234 72.158 55.7488 65.1515 56.2709C58.8813 56.7351 56.0698 51.1789 56.0698 51.1789Z" fill="white"/>
<path d="M85.8247 46.3232C85.8247 46.3232 87.0252 43.7839 89.3369 44.3864" stroke="#B27E76" stroke-width="1.75271" stroke-linecap="round" stroke-linejoin="round"/>
<path d="M48.4203 46.9254C48.0833 46.5717 47.6469 46.3287 47.1688 46.2283C46.6908 46.1279 46.1935 46.1749 45.7427 46.363" stroke="#B27E76" stroke-width="1.75271" stroke-linecap="round" stroke-linejoin="round"/>
<path d="M90.9629 59.7114L90.6772 59.8542L90.9629 59.7114Z" fill="#424D6A"/>
<path d="M65.0258 28.7312C65.1864 27.022 65.5078 21.0464 62.1205 21.0464C59.2198 21.0464 53.6012 23.1751 50.8119 24.3131C49.474 24.8621 48.229 25.6148 47.1212 26.5445C43.4752 29.5658 37.1113 36.6035 46.9472 42.9852L46.9204 43.0656C47.0901 43.0249 47.2637 43.0025 47.4381 42.9986V42.9986H47.7639C49.3214 42.8112 49.4642 43.7216 49.9953 44.1857C49.9953 44.1857 46.9918 38.6296 60.1659 31.5071C60.1659 31.5071 59.2465 31.5071 59.2733 31.5071C60.871 35.0773 68.5246 47.1266 85.7285 42.3649C85.7062 42.356 81.4308 26.3526 65.0258 28.7312Z" fill="#5F352C"/>
<path d="M62.6497 76.6248C62.6497 76.6248 63.9305 77.0711 62.5381 79.3917C61.6947 80.793 60.0122 78.0082 60.0122 78.0082L61.3733 76.2231L62.6497 76.6248Z" fill="#5A221F"/>
<path opacity="0.3" d="M55.2545 48.4928C58.4857 48.4928 61.1051 45.8734 61.1051 42.6422C61.1051 39.4109 58.4857 36.7915 55.2545 36.7915C52.0232 36.7915 49.4038 39.4109 49.4038 42.6422C49.4038 45.8734 52.0232 48.4928 55.2545 48.4928Z" fill="#55D7FF"/>
<path d="M55.2545 48.4928C58.4857 48.4928 61.1051 45.8734 61.1051 42.6422C61.1051 39.4109 58.4857 36.7915 55.2545 36.7915C52.0232 36.7915 49.4038 39.4109 49.4038 42.6422C49.4038 45.8734 52.0232 48.4928 55.2545 48.4928Z" stroke="white" stroke-width="0.876355" stroke-miterlimit="10"/>
<path opacity="0.3" d="M70.1959 48.4928C73.4271 48.4928 76.0465 45.8734 76.0465 42.6422C76.0465 39.4109 73.4271 36.7915 70.1959 36.7915C66.9646 36.7915 64.3452 39.4109 64.3452 42.6422C64.3452 45.8734 66.9646 48.4928 70.1959 48.4928Z" fill="#55D7FF"/>
<path d="M70.1959 48.4928C73.4271 48.4928 76.0465 45.8734 76.0465 42.6422C76.0465 39.4109 73.4271 36.7915 70.1959 36.7915C66.9646 36.7915 64.3452 39.4109 64.3452 42.6422C64.3452 45.8734 66.9646 48.4928 70.1959 48.4928Z" stroke="white" stroke-width="0.876355" stroke-miterlimit="10"/>
<path d="M60.8394 42.2314H64.3694" stroke="white" stroke-width="1.64317" stroke-miterlimit="10"/>
<path d="M85.5243 42.2314H76.0454" stroke="white" stroke-width="0.876355" stroke-linecap="round" stroke-linejoin="round"/>
<path d="M51.0073 31.833C51.0073 31.833 64.2572 19.73 85.9774 42.2624C85.9774 42.2624 82.126 27.7139 66.136 24.7551C55.9833 22.8807 51.4179 29.2714 51.0073 31.833Z" fill="#FF6D25"/>
<path d="M54.8696 74.6746C58.4889 74.032 55.8291 69.7344 59.9616 64.6022C61.7467 62.4021 61.3004 70.5466 61.3004 70.5466L60.2338 76.906C60.2338 76.906 61.3763 80.1817 55.3248 79.8782L54.8696 74.6746Z" fill="#FF6D25"/>
<path d="M54.6995 79.3518C56.0346 79.2885 57.3643 79.1394 58.6802 78.9055C57.8903 77.9817 57.0513 77.5087 56.6095 76.6072C56.6095 76.6072 57.4039 76.3885 57.4039 76.3796C57.0057 75.6069 56.4363 74.9353 55.7393 74.416C55.7081 74.4134 55.6768 74.4134 55.6456 74.416C55.1124 74.5719 54.5678 74.6853 54.0167 74.7551C53.9714 74.7669 53.925 74.7744 53.8783 74.7774L53.6284 74.8265C54.1467 76.2922 54.5058 77.8093 54.6995 79.3518Z" fill="#EAA996"/>
<path d="M49.0396 79.6065C49.5395 79.6913 51.8556 79.4816 54.3324 79.3656H54.7028C54.8479 77.7808 54.4719 76.1919 53.6318 74.8403C50.9229 75.2331 46.0451 74.2111 45.6613 78.589C45.6033 79.1915 49.2851 79.0665 49.0396 79.6065Z" fill="#3865A5"/>
<path d="M47.3999 79.3789C47.544 78.8037 47.8615 78.2866 48.3093 77.8979C48.7572 77.5091 49.3137 77.2674 49.9035 77.2056" stroke="#77AFFF" stroke-width="0.547722" stroke-linecap="round" stroke-linejoin="round"/>
<path d="M46.3511 78.9277C46.4634 78.2994 46.7595 77.7186 47.202 77.2587C47.6445 76.7987 48.2134 76.4803 48.8368 76.3438" stroke="#77AFFF" stroke-width="0.547722" stroke-linecap="round" stroke-linejoin="round"/>
<path d="M59.0024 80.0606C60.3281 79.8959 61.6415 79.6439 62.934 79.3064C62.0816 78.4406 63.4383 77.798 62.934 76.9278C62.934 76.9278 62.7734 76.2494 62.7689 76.2405C62.095 75.0713 60.4572 74.7856 60.4572 74.7856L60.3635 74.8124C59.582 75.0914 58.7866 75.3297 57.9804 75.5264C57.9356 75.543 57.8893 75.555 57.8421 75.5622C57.7216 75.5979 57.6412 75.6157 57.6011 75.6246C58.2222 77.0502 58.6919 78.537 59.0024 80.0606V80.0606Z" fill="#EAA996"/>
<path d="M53.6591 80.3476C55.3215 80.401 56.9856 80.3204 58.635 80.1066C58.7555 80.1066 58.876 80.0798 59.0054 80.0619C59.1577 79.1989 59.1042 78.312 58.8492 77.4736C58.6122 76.7548 58.1814 76.1155 57.6042 75.626C54.9265 76.2195 50.2942 75.1797 50.1871 79.3658C50.1692 79.9861 53.8644 79.7897 53.6591 80.3476Z" fill="#3865A5"/>
<path d="M50.0355 79.5846C50.0355 79.5846 47.8041 76.1304 57.5998 75.6172" stroke="#333333" stroke-width="0.547722" stroke-linecap="round" stroke-linejoin="round"/>
<path d="M61.0331 80.4499C61.0331 80.4499 61.2428 80.4499 61.6132 80.4499C64.2462 80.3204 74.9747 79.4145 76.5857 73.0283C77.1893 70.5124 77.3553 67.9113 77.0766 65.339L69.9898 65.1382C69.8657 66.4888 69.6208 67.8255 69.2579 69.1323C68.3921 72.2206 66.009 73.305 59.9575 74.9339C60.4398 75.1059 60.87 75.3983 61.2074 75.7834C61.5449 76.1685 61.7782 76.6334 61.8854 77.134C62.6575 80.3606 61.0331 80.4499 61.0331 80.4499Z" fill="#FF6D25"/>
<path d="M51.9956 80.0301C52.0333 79.5635 52.2527 79.1304 52.6066 78.8241C52.9606 78.5177 53.4207 78.3626 53.8878 78.3922" stroke="#77AFFF" stroke-width="0.547722" stroke-linecap="round" stroke-linejoin="round"/>
<path d="M50.8979 79.7266C50.8979 79.7266 51.0184 77.4238 53.0891 77.4238" stroke="#77AFFF" stroke-width="0.547722" stroke-linecap="round" stroke-linejoin="round"/>
<path d="M62.9517 67.8613H59.4351V70.4453H62.9517V67.8613Z" stroke="#3E3896" stroke-width="0.821583" stroke-miterlimit="10"/>
<path d="M63.3068 67.4194H59.0806V68.1156H63.3068V67.4194Z" fill="white"/>
<path d="M70.2915 78.8431C70.2915 78.8431 77.1641 77.2275 77.1641 70.9976" stroke="#333333" stroke-width="0.657266" stroke-linecap="round" stroke-linejoin="round"/>
<path d="M58.0596 80.6551L45.7603 78.7807L45.0016 63.8394C45.0056 63.63 44.9359 63.4258 44.8045 63.2627C44.6732 63.0995 44.4886 62.9877 44.2831 62.9469L25.4816 60.0863C25.3693 60.0797 25.257 60.0978 25.1525 60.1392C25.0479 60.1806 24.9537 60.2443 24.8763 60.3259C24.7989 60.4075 24.7403 60.505 24.7046 60.6116C24.6688 60.7182 24.6568 60.8314 24.6694 60.9431L25.4057 75.755C25.4182 76.0676 25.5397 76.3659 25.7492 76.5983C25.9587 76.8306 26.243 76.9823 26.5527 77.0269L45.8228 79.9767L57.8722 81.8154L58.0596 80.6551Z" fill="#444A94"/>
<path d="M32.3607 50.3366C32.2862 50.3688 32.2219 50.4208 32.1747 50.4868C32.1276 50.5529 32.0993 50.6306 32.093 50.7115L31.4726 58.2714C31.4664 58.348 31.4802 58.4249 31.5124 58.4947C31.5447 58.5644 31.5945 58.6247 31.6569 58.6696C31.7193 58.7145 31.7922 58.7425 31.8686 58.7509C31.945 58.7593 32.0223 58.7479 32.093 58.7177L34.0744 57.8608L35.4133 63.0376C35.4389 63.1321 35.495 63.2156 35.5729 63.2751C35.6507 63.3346 35.746 63.3668 35.8439 63.3668C35.9419 63.3668 36.0371 63.3346 36.1149 63.2751C36.1928 63.2156 36.2489 63.1321 36.2746 63.0376L39.0013 53.5944C39.0176 53.5379 39.0226 53.4786 39.0159 53.4202C39.0093 53.3617 38.9911 53.3051 38.9625 53.2537C38.9339 53.2022 38.8954 53.1569 38.8492 53.1205C38.803 53.084 38.75 53.057 38.6934 53.041C38.5967 53.0066 38.4911 53.0066 38.3944 53.041L35.806 54.1612L36.2523 49.3414C36.2634 49.2237 36.2274 49.1063 36.1521 49.0151C36.0768 48.9239 35.9683 48.8663 35.8506 48.855C35.7758 48.8468 35.7002 48.8592 35.6319 48.8907L32.3607 50.3366Z" fill="#FF6D25"/>
<path d="M35.8419 71.9554C36.7664 71.2292 36.8482 69.7904 36.0245 68.7418C35.2008 67.6932 33.7836 67.4319 32.8591 68.1582C31.9346 68.8844 31.8528 70.3232 32.6764 71.3718C33.5001 72.4204 34.9173 72.6817 35.8419 71.9554Z" fill="white"/>
<path d="M27.5252 53.7983L27.1548 56.6545" stroke="#8B94FF" stroke-width="1.09544" stroke-linecap="round" stroke-linejoin="round"/>
<path d="M19.9263 57.5386L22.2424 59.2567" stroke="#8B94FF" stroke-width="1.09544" stroke-linecap="round" stroke-linejoin="round"/>
</g>
<path d="M9.47823 33.5812L10.0406 33.9668L9.41014 34.2336L9.02338 34.799L8.75562 34.1689L8.19233 33.7832L8.82371 33.5165L9.20956 32.951L9.47823 33.5812Z" fill="#FF6D25"/>
<path d="M18.5077 46.5124L19.6325 47.2836L18.3716 47.8173L17.598 48.948L17.0625 47.688L15.9359 46.9165L17.1987 46.383L17.9704 45.2521L18.5077 46.5124Z" fill="#FF6D25"/>
<path d="M5.83801 38.0701L7.52514 39.227L5.63375 40.0275L4.47345 41.7236L3.67019 39.8335L1.98032 38.6763L3.87444 37.8761L5.03202 36.1797L5.83801 38.0701Z" fill="#F5BA1E"/>
<path d="M16.9522 15.3501C16.9522 15.3501 10.6148 13.7171 9.06576 17.5432C8.07923 19.9771 6.83971 25.5604 6.0683 29.3148C5.99529 29.6051 6.01575 29.911 6.12674 30.189C6.23772 30.467 6.43358 30.7028 6.68643 30.863C6.93929 31.0232 7.23624 31.0995 7.53498 31.081C7.83373 31.0626 8.11905 30.9503 8.35029 30.7603L16.5039 24.641L16.9522 15.3501Z" fill="#D94042"/>
<path d="M32.8396 23.0311C32.8396 23.0311 37.9658 27.099 35.8446 30.6447C34.5032 32.8964 30.797 37.2552 28.2746 40.1404C28.081 40.3617 27.8244 40.5187 27.5393 40.5904C27.2541 40.6622 26.9539 40.6452 26.6786 40.5419C26.4033 40.4386 26.166 40.2537 25.9985 40.0121C25.831 39.7704 25.7411 39.4834 25.7409 39.1894L25.6981 28.9977L32.8396 23.0311Z" fill="#D94042"/>
<path d="M21.9547 35.0003L14.2445 31.1691L16.4887 28.2545L22.9206 31.4512L21.9547 35.0003Z" fill="#A24440"/>
<path d="M36.8969 11.1797C36.4105 8.13994 34.9636 5.68909 32.6205 4.54656C30.2775 3.40403 27.4719 3.69472 24.7488 5.14168C21.6834 6.77106 18.7616 9.83644 16.7579 13.8646C13.961 19.4907 14.737 25.1114 15.2654 27.459C15.3413 27.8091 15.4955 28.1374 15.7164 28.4193C15.9374 28.7012 16.2194 28.9293 16.5412 29.0866L22.9036 32.227C23.196 32.3736 23.5156 32.4581 23.8422 32.4752C24.1689 32.4923 24.4956 32.4416 24.8017 32.3263C26.8701 31.5439 31.61 29.1507 34.7569 22.813C36.7742 18.7913 37.4323 14.5979 36.8969 11.1797Z" fill="#FFDE55"/>
<path d="M36.2974 10.8822C35.811 7.84253 34.3641 5.39167 32.0216 4.24444C29.6792 3.09721 26.873 3.39257 24.1499 4.83953C21.0845 6.46891 18.1621 9.53899 16.159 13.5625C13.3622 19.1886 14.1381 24.8093 14.6659 27.1616C14.7418 27.5117 14.896 27.84 15.117 28.1219C15.338 28.4038 15.62 28.6319 15.9418 28.7892L22.3089 31.9301C22.6023 32.0742 22.922 32.1569 23.2484 32.1731C23.5749 32.1894 23.9012 32.1389 24.2075 32.0247C26.2806 31.243 31.0153 28.8539 34.1669 22.5167C36.1659 18.488 36.8422 14.3016 36.2974 10.8822Z" fill="white"/>
<path d="M34.495 22.6811C31.3293 29.0165 26.6087 31.4074 24.5403 32.1897C24.2339 32.3033 23.9076 32.3535 23.5813 32.3373C23.2549 32.321 22.9352 32.2386 22.6417 32.0951L16.2793 28.9547C15.957 28.7969 15.6748 28.568 15.4539 28.2853C15.233 28.0025 15.0792 27.6733 15.004 27.3225C14.4709 24.9742 13.6997 19.3541 16.4965 13.728C18.4949 9.70395 21.4267 6.63502 24.4874 5.00507C26.2732 6.42051 28.2043 7.64216 30.2483 8.64943C32.2886 9.67131 34.4309 10.4754 36.6396 11.0484C37.1751 14.4666 36.4987 18.6529 34.495 22.6811Z" fill="#FF6D25"/>
<path d="M31.1267 22.2302C33.7047 19.4762 33.5621 15.1538 30.8081 12.5758C28.0542 9.99778 23.7318 10.1404 21.1537 12.8944C18.5757 15.6483 18.7184 19.9707 21.4723 22.5487C24.2263 25.1268 28.5487 24.9841 31.1267 22.2302Z" fill="#A24440"/>
<path d="M30.571 21.9328C33.1491 19.1788 33.0064 14.8565 30.2525 12.2784C27.4985 9.70043 23.1761 9.84305 20.5981 12.597C18.0201 15.351 18.1627 19.6734 20.9167 22.2514C23.6706 24.8294 27.993 24.6868 30.571 21.9328Z" fill="#FFA526"/>
<path d="M31.1058 21.9423C33.6872 19.1807 33.5412 14.8494 30.7797 12.2679C28.0181 9.68643 23.6868 9.83243 21.1053 12.594C18.5238 15.3556 18.6698 19.6869 21.4314 22.2684C24.193 24.8498 28.5243 24.7038 31.1058 21.9423Z" fill="#FF7D43"/>
<path d="M25.3437 21.9293C27.8147 22.2328 30.0638 20.4756 30.3673 18.0045C30.6707 15.5335 28.9135 13.2844 26.4424 12.981C23.9714 12.6776 21.7223 14.4348 21.4189 16.9058C21.1155 19.3768 22.8727 21.6259 25.3437 21.9293Z" fill="#A24440"/>
<path d="M17.2397 34.0499C14.9417 32.8126 12.0166 33.805 10.7244 36.2395C8.33538 40.7218 9.83032 47.916 9.83032 47.916C9.83032 47.916 16.656 45.1437 19.0421 40.6849C20.3443 38.2469 19.5341 35.2772 17.2397 34.0499Z" fill="#F8CD5A"/>
<path d="M17.0084 34.4791C15.6328 33.7419 13.8363 34.4095 13.0049 35.9694C11.4795 38.8242 12.2708 43.3483 12.2708 43.3483C12.2708 43.3483 16.4739 41.4766 17.9975 38.6359C18.829 37.0761 18.3892 35.2121 17.0084 34.4791Z" fill="#E14F56"/>
<path d="M36.6282 11.0467C34.4194 10.4738 32.2771 9.66968 30.2368 8.6478C28.1929 7.64053 26.2617 6.41887 24.476 5.00343C27.1897 3.55532 30.0022 3.24641 32.3429 4.40776C34.6837 5.56911 36.1465 8.00759 36.6282 11.0467Z" fill="#ED585B"/>
<path d="M21.8741 34.9867L14.2642 31.2025C14.1353 31.1384 13.9788 31.1909 13.9147 31.3199L13.8936 31.3623C13.8295 31.4912 13.882 31.6477 14.0109 31.7118L21.6209 35.496C21.7498 35.5602 21.9062 35.5076 21.9704 35.3787L21.9915 35.3362C22.0556 35.2073 22.003 35.0508 21.8741 34.9867Z" fill="#EB5C7D"/>
<path d="M86.9679 90.1546L88.665 101.372C88.7287 101.793 89.1213 102.082 89.542 102.019L107.989 99.2275C108.41 99.1638 108.699 98.7712 108.636 98.3506L106.939 87.1331C106.875 86.7124 106.482 86.423 106.062 86.4867L87.6143 89.2777C87.1936 89.3414 86.9042 89.734 86.9679 90.1546Z" fill="#6371D6"/>
<path d="M88.4971 89.9086L90.1943 101.126C90.258 101.547 90.6506 101.836 91.0713 101.772L109.519 98.9814C109.939 98.9177 110.229 98.5251 110.165 98.1045L108.468 86.887C108.404 86.4663 108.012 86.1769 107.591 86.2406L89.1436 89.0316C88.7229 89.0953 88.4335 89.4879 88.4971 89.9086Z" fill="#C9D0FF"/>
<path d="M88.7767 90.268L90.3562 100.708C90.4523 101.343 91.0453 101.78 91.6807 101.684L109.351 99.0109C109.986 98.9148 110.423 98.3218 110.327 97.6864L108.747 87.2464C108.651 86.6111 108.058 86.174 107.423 86.2701L89.753 88.9435C89.1177 89.0396 88.6805 89.6326 88.7767 90.268Z" fill="#8D99F2"/>
<mask id="mask1_233_29146" style="mask-type:alpha" maskUnits="userSpaceOnUse" x="88" y="86" width="23" height="16">
<path d="M88.7335 89.8866L90.4307 101.104C90.4943 101.525 90.8865 101.814 91.3067 101.751L109.732 98.9628C110.153 98.8993 110.442 98.5067 110.378 98.086L108.681 86.8686C108.617 86.4479 108.225 86.1584 107.805 86.222L89.3791 89.0098C88.9589 89.0734 88.6698 89.4659 88.7335 89.8866Z" fill="#50B6D6"/>
</mask>
<g mask="url(#mask1_233_29146)">
<path d="M86.025 86.3894L86.8506 91.8462L110.726 88.2339L109.9 82.7772L86.025 86.3894Z" fill="#7082FA"/>
</g>
<path d="M93.6319 89.4572C93.6683 89.5541 93.6796 89.6585 93.6649 89.7609C93.6501 89.8633 93.6097 89.9603 93.5475 90.043C93.4852 90.1256 93.4031 90.1913 93.3088 90.2337C93.2145 90.2762 93.1109 90.2941 93.0078 90.2859C92.9247 90.2858 92.8424 90.2688 92.766 90.236C92.6897 90.2031 92.6208 90.1551 92.5635 90.0949C92.5062 90.0346 92.4617 89.9634 92.4327 89.8854C92.4038 89.8075 92.3909 89.7245 92.3949 89.6414C92.399 89.5584 92.4198 89.477 92.4562 89.4023C92.4926 89.3275 92.5438 89.261 92.6067 89.2066C92.6695 89.1522 92.7428 89.1111 92.822 89.0858C92.9012 89.0605 92.9847 89.0516 93.0675 89.0595C93.1903 89.0628 93.3094 89.1023 93.4098 89.173C93.5103 89.2438 93.5875 89.3426 93.6319 89.4572ZM90.7556 89.4077C90.6241 89.4054 90.4954 89.4453 90.3883 89.5216C90.2812 89.5979 90.2014 89.7065 90.1606 89.8314C90.1198 89.9564 90.1202 90.0912 90.1616 90.216C90.2031 90.3407 90.2834 90.4489 90.3909 90.5246C90.4984 90.6004 90.6273 90.6396 90.7587 90.6367C90.8902 90.6337 91.0172 90.5887 91.1211 90.5082C91.2251 90.4277 91.3005 90.3161 91.3363 90.1895C91.3721 90.063 91.3664 89.9284 91.32 89.8054C91.2757 89.6887 91.1967 89.5883 91.0936 89.5179C90.9905 89.4474 90.8683 89.4103 90.7435 89.4114L90.7556 89.4077ZM95.2863 88.7094C95.202 88.7161 95.12 88.7401 95.0454 88.7799C94.9707 88.8196 94.9051 88.8744 94.8527 88.9407C94.8002 89.007 94.762 89.0835 94.7404 89.1652C94.7188 89.247 94.7143 89.3323 94.7272 89.4159C94.7401 89.4995 94.7701 89.5795 94.8153 89.6509C94.8606 89.7223 94.92 89.7837 94.99 89.8311C95.0601 89.8785 95.1391 89.911 95.2223 89.9264C95.3054 89.9419 95.3908 89.94 95.4732 89.9209C95.6243 89.886 95.7566 89.7951 95.8436 89.6667C95.9305 89.5383 95.9657 89.3817 95.942 89.2284C95.9183 89.0751 95.8377 88.9365 95.716 88.8402C95.5944 88.744 95.4409 88.6972 95.2863 88.7094Z" fill="#DADEFB"/>
<path d="M94.2418 95.6896C94.2592 95.7459 94.2767 95.8021 94.293 95.8544C94.3092 95.9067 94.3255 95.9589 94.3404 96.0072C94.3759 96.1438 94.4272 96.2758 94.4935 96.4004C94.5416 96.4923 94.6047 96.5755 94.6802 96.6466C94.7404 96.7001 94.8128 96.7381 94.891 96.7574C94.9667 96.7745 95.0451 96.7756 95.1213 96.7608C95.2004 96.747 95.2775 96.7231 95.3504 96.6896C95.4328 96.6498 95.5109 96.6019 95.5837 96.5466C95.6649 96.4889 95.7427 96.4265 95.8165 96.3596C95.8965 96.2907 95.974 96.2137 96.0474 96.1379L96.3386 97.3303C96.2578 97.4465 96.1636 97.5527 96.0578 97.6467C95.9469 97.7469 95.8275 97.8371 95.7008 97.9164C95.5798 97.9922 95.4529 98.0582 95.3213 98.1137C95.1918 98.1687 95.0571 98.2105 94.9193 98.2386L94.501 98.3113C94.3649 98.3272 94.2288 98.343 94.0741 98.3558C93.9396 98.3622 93.8049 98.3599 93.6707 98.3489C93.5379 98.3383 93.4061 98.3173 93.2766 98.2863L93.1217 98.2418L92.9646 98.176C92.8776 98.1264 92.7951 98.0695 92.7178 98.0059C92.6368 97.9381 92.5609 97.8644 92.4906 97.7855C92.374 97.694 92.2709 97.5866 92.1842 97.4664C92.0887 97.3004 92.0081 97.1263 91.9432 96.9461C91.8646 96.7276 91.8051 96.5028 91.7652 96.2741C91.7119 96.0064 91.6907 95.7333 91.702 95.4606C91.7109 95.2187 91.7521 94.9791 91.8244 94.748C91.9298 94.3296 92.146 93.9472 92.4502 93.6411C92.7513 93.3528 93.1213 93.1467 93.5249 93.0426L93.6134 93.0151L93.7018 92.9876C93.9109 92.9464 94.1237 92.9275 94.3368 92.9313C94.5553 92.9353 94.773 92.9576 94.9878 92.9979C95.2176 93.042 95.4434 93.1045 95.6631 93.1848L95.711 94.1618L95.2628 94.138C95.1177 94.1277 94.9718 94.1345 94.8283 94.1584C94.7114 94.1813 94.5995 94.225 94.4981 94.2875C94.3936 94.3596 94.3132 94.4614 94.2671 94.5797C94.2132 94.7203 94.1849 94.8694 94.1835 95.02C94.1798 95.2446 94.1994 95.469 94.2418 95.6896Z" fill="#DADEFB"/>
<path d="M100.153 95.9381C100.178 96.1024 100.202 96.2667 100.224 96.4229C100.246 96.5791 100.269 96.7221 100.285 96.8449C100.301 96.9677 100.317 97.0906 100.325 97.1852C100.333 97.256 100.336 97.3273 100.334 97.3985L100.237 97.4284L100.008 97.4996C99.9987 97.5066 99.9873 97.5101 99.9757 97.5097C99.9757 97.5097 99.9758 97.5097 99.9454 97.497L99.5887 97.555L99.5203 97.5762L99.3877 97.6175L99.247 97.6612L99.1585 97.6887C99.1384 97.6949 99.1224 97.6999 99.0993 97.6542C99.0819 97.6218 99.0708 97.5863 99.0668 97.5497C99.0478 97.5027 99.0328 97.4543 99.0219 97.4049C99.0069 97.3567 98.9906 97.3044 98.9756 97.2562C98.9607 97.208 98.9457 97.1597 98.9332 97.1195L98.9044 97.0271C98.8574 96.7243 98.8091 96.4131 98.7597 96.0934C98.7143 95.7769 98.6661 95.4657 98.6244 95.1612L98.2549 92.7809C98.2437 92.7448 98.2362 92.7207 98.2643 92.7119L98.3085 92.6982L98.6946 92.6355L99.0848 92.5716L99.1169 92.5616L99.1732 92.5441L99.2576 92.5179C99.3051 92.5146 99.3528 92.516 99.4 92.5221C99.4063 92.5422 99.4087 92.5502 99.4356 92.5375L99.4678 92.5275C99.498 92.521 99.5292 92.5202 99.5597 92.5253C99.5743 92.5308 99.5875 92.5394 99.5986 92.5504C99.6096 92.5614 99.6182 92.5746 99.6237 92.5892C99.6477 92.6418 99.6649 92.6971 99.6749 92.754C99.6974 92.8264 99.7085 92.9331 99.7311 93.0628L99.9594 94.5347C99.9594 94.5347 99.9706 94.5709 99.9918 94.6393C100.013 94.7076 100.016 94.8036 100.029 94.9143C100.041 95.0251 100.063 95.1374 100.08 95.2642C100.098 95.3911 100.111 95.5059 100.128 95.6154C100.144 95.7249 100.159 95.8171 100.17 95.8932L100.153 95.9381Z" fill="#DADEFB"/>
<path d="M100.224 94.2402L100.71 94.1729L101.132 94.1123C101.262 94.0937 101.376 94.076 101.471 94.0686C101.541 94.0604 101.613 94.0575 101.684 94.0596C101.691 94.0838 101.7 94.1119 101.711 94.1481L101.74 94.2405C101.749 94.2687 101.756 94.2928 101.763 94.3129L101.775 94.3531C101.782 94.3622 101.786 94.3737 101.785 94.3853L101.834 94.7138C101.834 94.7138 101.842 94.7379 101.853 94.7741L101.891 94.8947C101.904 94.939 101.918 94.9832 101.93 95.0234C101.941 95.0508 101.95 95.079 101.957 95.1078C101.957 95.1078 101.967 95.1399 101.925 95.1617C101.89 95.1773 101.854 95.1886 101.816 95.1954L101.603 95.2617L101.451 95.3091L101.318 95.3504L101.221 95.3803L100.291 95.5198L99.3544 95.6564L96.9794 96.0286C96.9392 96.0411 96.9191 96.0473 96.9063 96.0204C96.9002 96.0077 96.896 95.9942 96.8939 95.9803C96.8777 95.8574 96.8548 95.7411 96.8359 95.6235C96.817 95.506 96.7941 95.3897 96.7792 95.2709C96.7797 95.2593 96.7761 95.248 96.7692 95.2387C96.7619 95.2235 96.7568 95.2072 96.7542 95.1905C96.7425 95.1648 96.7341 95.1378 96.7292 95.1101C96.7269 95.0665 96.7296 95.0228 96.7372 94.9798C96.7372 94.9798 96.7653 94.971 96.7538 94.9482L96.7438 94.916C96.738 94.8883 96.7381 94.8597 96.7442 94.8321C96.749 94.8182 96.7571 94.8056 96.7677 94.7954C96.7783 94.7852 96.7912 94.7776 96.8053 94.7734C96.858 94.7498 96.9133 94.7326 96.9701 94.7222L97.2789 94.666L98.7509 94.4377L98.8554 94.4053L99.1292 94.3642L99.4803 94.3168L99.8303 94.2654L100.109 94.2272L100.224 94.2402Z" fill="#DADEFB"/>
<path d="M105.872 95.0646L105.942 95.5453C105.964 95.7015 105.986 95.8445 106.002 95.9673C106.019 96.0901 106.035 96.213 106.043 96.3117C106.053 96.3823 106.056 96.4537 106.052 96.5249L105.956 96.5549L105.855 96.5861L105.731 96.6248C105.731 96.6248 105.703 96.6336 105.692 96.6147C105.682 96.5959 105.692 96.6147 105.668 96.6222L105.31 96.6761C105.31 96.6761 105.286 96.6836 105.246 96.6961L105.109 96.7386L104.969 96.7823L104.88 96.8098C104.868 96.8104 104.856 96.8074 104.845 96.8013C104.835 96.7952 104.826 96.7862 104.821 96.7753C104.805 96.7408 104.793 96.7043 104.787 96.6668C104.769 96.6212 104.754 96.5741 104.743 96.5261L104.697 96.3773C104.681 96.3251 104.667 96.2809 104.655 96.2407L104.626 96.1482C104.58 95.845 104.532 95.5338 104.485 95.2133C104.439 94.8928 104.39 94.5815 104.349 94.2771L103.977 91.9021C103.964 91.8619 103.958 91.8418 103.985 91.829L104.029 91.8153L104.415 91.7526L104.804 91.6847C104.817 91.685 104.83 91.681 104.84 91.6734L104.892 91.6572L104.977 91.6309C105.025 91.6245 105.075 91.6255 105.123 91.6339C105.123 91.6339 105.132 91.6621 105.147 91.6264L105.179 91.6164C105.21 91.6094 105.241 91.6087 105.271 91.6143C105.286 91.6191 105.299 91.6268 105.311 91.6369C105.322 91.6469 105.331 91.6592 105.338 91.673C105.362 91.727 105.38 91.7837 105.39 91.8418C105.413 91.9142 105.443 92.0106 105.447 92.1505L105.678 93.6172C105.68 93.6557 105.684 93.6941 105.691 93.732C105.713 93.8004 105.715 93.8923 105.731 94.0018C105.748 94.1113 105.762 94.2301 105.78 94.357C105.797 94.4838 105.815 94.5974 105.827 94.7081C105.84 94.8189 105.859 94.9098 105.868 94.9819C105.877 95.054 105.869 95.0565 105.872 95.0646Z" fill="#DADEFB"/>
<path d="M105.944 93.3752L106.429 93.3039L106.851 93.2433L107.195 93.2024C107.266 93.1934 107.337 93.1904 107.408 93.1935C107.415 93.2223 107.423 93.2505 107.434 93.2779C107.442 93.3093 107.452 93.3401 107.463 93.3703L107.487 93.4467C107.489 93.4578 107.492 93.4686 107.497 93.4789C107.497 93.4789 107.504 93.503 107.506 93.507C107.507 93.511 107.506 93.507 107.513 93.5311L107.562 93.8597C107.562 93.8597 107.57 93.8838 107.581 93.92C107.592 93.9562 107.605 93.9964 107.62 94.0446C107.635 94.0929 107.647 94.1331 107.66 94.1733C107.672 94.2135 107.681 94.2416 107.685 94.2536C107.689 94.2657 107.695 94.2858 107.649 94.3088L107.54 94.3426C107.495 94.3609 107.448 94.3755 107.4 94.3863L107.251 94.4325L107.114 94.475L107.022 94.5037L106.087 94.6444L105.152 94.7851L102.776 95.1532C102.736 95.1657 102.715 95.172 102.703 95.1451C102.695 95.1332 102.69 95.1192 102.69 95.1049C102.655 94.9923 102.652 94.8698 102.629 94.7534L102.573 94.4008C102.571 94.3882 102.567 94.376 102.562 94.3646C102.554 94.3494 102.549 94.3331 102.547 94.3163C102.537 94.2913 102.529 94.2658 102.523 94.24C102.522 94.1951 102.524 94.1502 102.53 94.1056C102.53 94.1056 102.558 94.0969 102.546 94.074L102.537 94.0459C102.532 94.0182 102.532 93.9896 102.538 93.962C102.543 93.948 102.551 93.9353 102.561 93.9245C102.572 93.9137 102.584 93.9051 102.598 93.8993C102.651 93.8761 102.706 93.8589 102.763 93.8481C102.835 93.8256 102.935 93.7944 103.071 93.7918L104.542 93.5596L104.657 93.546L104.927 93.5062L105.278 93.4588L105.632 93.4061L105.905 93.3651L105.944 93.3752Z" fill="#DADEFB"/>
</svg>
