<svg width="40" height="40" viewBox="0 0 40 40" fill="none" xmlns="http://www.w3.org/2000/svg">
    <title>header vsk icons</title>
    <desc>Created with Sketch.</desc>
    <style>
        st0 {
            display: none;
        }

        g {
            display: none;
        }

        g:target g {
            display: inline;
        }

        g:target {
            display: inline;
        }
    </style>
    <g id="coding" width="40" height="40" viewBox="0 0 40 40" fill="none" xmlns="http://www.w3.org/2000/svg">
        <path
            d="M2.79679 17.9872C4.40127 20.0015 8.91501 16.7777 11.3507 17.4728C14.8592 18.4732 16.4253 22.6955 19.4389 20.5326C24.5461 16.8674 24.7656 7.31156 19.4389 4.00022C14.5191 0.941506 11.6845 8.46042 9.14198 10.2856C4.03437 13.9522 1.42769 15.1433 2.79679 17.9872Z"
            fill="#FFF0E9" />
        <path
            d="M17.5188 20.1766L15.1776 22.035L14.8401 22.3038C14.8159 22.3281 14.7967 22.3569 14.7835 22.3887C14.7704 22.4205 14.7637 22.4545 14.7637 22.4889C14.7637 22.5233 14.7704 22.5574 14.7835 22.5891C14.7967 22.6209 14.8159 22.6497 14.8401 22.674L16.9577 24.3567L17.261 24.5968C17.3109 24.644 17.3769 24.6702 17.4454 24.6702C17.514 24.6702 17.5799 24.644 17.6298 24.5968C17.6541 24.5725 17.6733 24.5437 17.6864 24.5119C17.6996 24.4801 17.7063 24.4461 17.7063 24.4117C17.7063 24.3773 17.6996 24.3433 17.6864 24.3115C17.6733 24.2797 17.6541 24.2509 17.6298 24.2266L15.5123 22.5454L15.209 22.3038V22.674L17.5501 20.8156L17.8876 20.5468C17.9358 20.4976 17.9628 20.4314 17.9628 20.3624C17.9628 20.2934 17.9358 20.2272 17.8876 20.178C17.838 20.1302 17.7719 20.1035 17.7032 20.1035C17.6344 20.1035 17.5684 20.1302 17.5188 20.178V20.1766Z"
            fill="white" />
        <path
            d="M23.4679 20.4983L25.809 22.3568L26.1465 22.6256V22.2553L24.029 23.9379L23.7256 24.1795C23.6771 24.2285 23.6499 24.2948 23.6499 24.3639C23.6499 24.433 23.6771 24.4993 23.7256 24.5483C23.7752 24.5961 23.8413 24.6228 23.9101 24.6228C23.9788 24.6228 24.0449 24.5961 24.0945 24.5483L26.212 22.8672L26.5153 22.6256C26.5396 22.6013 26.5588 22.5724 26.5719 22.5406C26.5851 22.5089 26.5918 22.4748 26.5918 22.4404C26.5918 22.406 26.5851 22.372 26.5719 22.3402C26.5588 22.3085 26.5396 22.2796 26.5153 22.2553L24.1742 20.3968L23.8367 20.1281C23.7868 20.0809 23.7208 20.0547 23.6523 20.0547C23.5838 20.0547 23.5178 20.0809 23.4679 20.1281C23.4196 20.1775 23.3926 20.244 23.3926 20.3132C23.3926 20.3824 23.4196 20.4489 23.4679 20.4983V20.4983Z"
            fill="white" />
        <path
            d="M21.0585 20.1238L20.0532 23.8236L19.9107 24.354C19.8225 24.6799 20.3251 24.8186 20.4134 24.4969L21.4188 20.7972L21.5612 20.2654C21.5706 20.2322 21.5733 20.1976 21.5693 20.1634C21.5653 20.1292 21.5547 20.0961 21.5379 20.066C21.5212 20.0359 21.4988 20.0095 21.4718 19.9881C21.4449 19.9668 21.4141 19.951 21.3811 19.9416C21.3481 19.9322 21.3135 19.9294 21.2795 19.9334C21.2454 19.9374 21.2124 19.9481 21.1825 19.9649C21.1525 19.9817 21.1262 20.0043 21.1049 20.0313C21.0836 20.0583 21.0679 20.0893 21.0585 20.1224V20.1238Z"
            fill="white" />
        <path
            d="M9.98828 17.6691L29.4362 16.771L29.91 27.0313C29.9391 27.6619 29.4516 28.1966 28.8211 28.2257L11.6564 29.0183C11.0259 29.0474 10.4912 28.5599 10.4621 27.9294L9.98828 17.6691Z"
            fill="#FF693D" />
        <path d="M20.4746 29.2235L20.6066 32.094" stroke="#333333" stroke-width="1.48571" />
        <rect x="9.72319" y="14.1166" width="20.0887" height="15.1602" rx="1.65714"
            transform="rotate(-2.63335 9.72319 14.1166)" stroke="#333333" stroke-width="1.25714" />
        <path
            d="M20.9447 20.6142L20.9447 20.6142L20.9435 20.6162L18.4882 24.8724C18.3642 25.0807 18.4455 25.3558 18.6447 25.4764L18.6523 25.481L18.6604 25.4846C18.7317 25.5164 18.7996 25.5379 18.8889 25.5338C19.0375 25.5269 19.1683 25.4542 19.2487 25.3201L19.2487 25.3201L19.2499 25.318L21.7057 21.0609L21.7058 21.061L21.7079 21.0571C21.8251 20.8385 21.7503 20.5799 21.5487 20.4579L21.5488 20.4577L21.5428 20.4545C21.3242 20.336 21.066 20.4118 20.9447 20.6142ZM14.3531 22.8969C14.1881 23.0787 14.2004 23.3459 14.3814 23.5118L16.5345 25.4848C16.6231 25.566 16.7347 25.6065 16.8475 25.6014C16.9602 25.5962 17.0677 25.5455 17.1484 25.4566C17.3134 25.2748 17.3011 25.0076 17.1201 24.8417L15.2871 23.1621L16.9582 21.3212C17.1232 21.1394 17.1109 20.8722 16.9299 20.7063C16.7485 20.5401 16.4814 20.5524 16.316 20.7346L14.3531 22.8969ZM24.9063 22.7722L23.2352 24.613C23.0702 24.7948 23.0825 25.062 23.2635 25.2279C23.352 25.3091 23.4637 25.3496 23.5764 25.3444C23.6892 25.3393 23.7966 25.2886 23.8774 25.1997L25.8403 23.0373C26.0053 22.8555 25.993 22.5883 25.812 22.4225L23.6589 20.4494C23.4775 20.2832 23.2104 20.2955 23.045 20.4777C22.88 20.6594 22.8923 20.9267 23.0733 21.0925L24.9063 22.7722Z"
            fill="white" stroke="white" stroke-width="0.285714" />
        <path d="M16.9062 32.6283L24.2874 32.2888" stroke="#333333" stroke-width="1.25714" stroke-linecap="round" />
    </g>

    <g width="40" height="40" viewBox="0 0 40 40" fill="none" xmlns="http://www.w3.org/2000/svg" id="test">
<rect x="11.3711" y="16.7036" width="18.1852" height="17.7653" rx="2.28571" transform="rotate(-4.74224 11.3711 16.7036)" fill="white"/>
<path d="M7.61378 22.9596C18.2721 19.9809 5.54267 9.97227 14.2035 8.1248C37.2126 3.22126 24.7159 26.7429 16.4111 29.3413C6.25258 32.5183 3.118 24.215 7.61378 22.9596Z" fill="#DAEFDE"/>
<path d="M31.0569 29.6225L26.9158 14.1677C26.6299 13.1008 25.5333 12.4676 24.4663 12.7535L22.5345 13.2711L14.8071 15.3417L12.8752 15.8593C11.8083 16.1452 11.1751 17.2419 11.461 18.3088L15.6021 33.7636C15.888 34.8306 16.9847 35.4637 18.0516 35.1778L29.6427 32.072C30.7096 31.7861 31.3428 30.6894 31.0569 29.6225Z" fill="white"/>
<path d="M22.5345 13.2711L24.4663 12.7535C25.5333 12.4676 26.6299 13.1008 26.9158 14.1677L31.0569 29.6225C31.3428 30.6894 30.7096 31.7861 29.6427 32.072L18.0516 35.1778C16.9847 35.4637 15.888 34.8305 15.6021 33.7636L11.461 18.3088C11.1751 17.2419 11.8083 16.1452 12.8752 15.8593L14.8071 15.3417" stroke="#333333" stroke-width="1.2" stroke-linejoin="round"/>
<path d="M19.9745 30.7869L18.4561 31.1937L18.4052 31.9776L17.3678 32.2556L17.7497 27.7927L18.8973 27.4852L21.4595 31.1592L20.4105 31.4403L19.9745 30.7869ZM19.5145 30.0902L18.6112 28.7358L18.5119 30.3588L19.5145 30.0902ZM24.4219 28.6697L23.4135 28.9399L23.6899 29.9715L22.751 30.223L22.4746 29.1914L21.4662 29.4616L21.2286 28.5749L22.237 28.3047L21.959 27.2673L22.8979 27.0157L23.1759 28.0531L24.1843 27.7829L24.4219 28.6697Z" fill="#E40000"/>
<path d="M15.394 21.3965L25.0533 18.8083" stroke="#333333" stroke-width="1.2" stroke-linecap="round"/>
<path d="M16.4292 25.2598L22.2248 23.7069" stroke="#333333" stroke-width="1.2" stroke-linecap="round"/>
<rect x="14.5483" y="14.376" width="8" height="4" rx="1" transform="rotate(-15 14.5483 14.376)" fill="#FF4A4A"/>
<rect x="14.2896" y="13.4102" width="8" height="4" rx="1" transform="rotate(-15 14.2896 13.4102)" stroke="#333333" stroke-width="1.2" stroke-linejoin="round"/>
</g>



    <g id="reading" width="40" height="40" viewBox="0 0 40 40" fill="none" xmlns="http://www.w3.org/2000/svg">
        <path
            d="M4.94876 15.1573C14.5622 15.4656 8.40473 3.04814 16.0677 3.78124C36.434 5.72978 18.1299 22.8923 10.5684 22.8871C1.30376 22.8801 0.891312 15.0285 4.94876 15.1573Z"
            fill="#FFF0CB" />
        <path
            d="M13.7793 14.377L25.8947 15.4209C27.1524 15.5292 28.0842 16.6367 27.9758 17.8944L26.969 29.5794C26.8606 30.8371 25.7532 31.7689 24.4955 31.6605L14.6573 30.8128C13.3996 30.7044 12.4679 29.597 12.5763 28.3393L13.7793 14.377Z"
            fill="white" />
        <path d="M17.4156 24.3767L18.3965 12.6487L25.2378 13.2209L24.2569 24.9489L20.7817 22.8922L17.4156 24.3767Z"
            fill="#F9CC4C" />
        <path fill-rule="evenodd" clip-rule="evenodd"
            d="M15.8819 13.8499L28.0433 14.867L28.0434 14.866C28.1072 14.8714 28.1694 14.8854 28.2285 14.9072L28.3911 14.9208C28.4019 14.9212 28.4127 14.9219 28.4235 14.9228C28.6086 14.9383 28.7799 15.0265 28.8999 15.168C29.0198 15.3096 29.0786 15.4928 29.0631 15.6775L29.0631 15.6783L27.7084 31.8745C27.6913 32.0585 27.6025 32.2285 27.4611 32.3478C27.3197 32.4671 27.137 32.5262 26.9523 32.5125L14.2076 31.4465C14.189 31.445 14.1702 31.4435 14.1515 31.4421C14.0838 31.4368 14.0157 31.4316 13.949 31.4209C13.0993 31.2875 12.3658 30.8021 11.9525 30.0413C11.707 29.5885 11.6094 29.0629 11.6522 28.5515L13.0012 12.4225C13.0017 12.4137 13.0023 12.4049 13.0029 12.3961C13.0463 11.6872 13.3992 10.9875 13.9509 10.5392C14.4884 10.1024 15.176 9.87728 15.8692 9.93526L28.3684 10.9807C28.5535 10.9961 28.7248 11.0845 28.8448 11.2262C28.9648 11.3679 29.0235 11.5514 29.008 11.7363C28.9925 11.9213 28.9042 12.0925 28.7623 12.2123C28.6205 12.3321 28.4368 12.3907 28.2517 12.3752L16.276 11.3736C16.2144 11.3684 16.1524 11.3624 16.0901 11.3564C15.9197 11.3398 15.7476 11.3231 15.5771 11.3236C15.5104 11.3303 15.4441 11.3405 15.3785 11.3542C15.3449 11.3615 15.3115 11.3691 15.2783 11.3777C15.2585 11.3845 15.2374 11.392 15.2243 11.3975C15.135 11.4331 15.0485 11.4754 14.9655 11.5239C14.9643 11.5248 14.963 11.5258 14.9617 11.5267C14.9246 11.5532 14.8887 11.5798 14.8544 11.6088C14.8115 11.6448 14.7693 11.6814 14.7298 11.721C14.7272 11.7237 14.7246 11.7262 14.7223 11.7285C14.6623 11.801 14.6077 11.8778 14.5589 11.9582C14.5515 11.9703 14.5442 11.9823 14.5371 11.9944C14.5206 12.03 14.5046 12.0658 14.4903 12.1025C14.4651 12.1686 14.443 12.2359 14.4241 12.3041C14.4054 12.4175 14.3958 12.5323 14.3955 12.6473C14.4023 12.7142 14.4126 12.7806 14.4264 12.8464C14.4333 12.8809 14.441 12.9148 14.45 12.9491C14.4577 12.9719 14.4661 12.9961 14.4717 13.0094C14.5068 13.0957 14.548 13.1794 14.5949 13.2599C14.6029 13.2709 14.611 13.2819 14.6192 13.2929C14.6425 13.3234 14.6658 13.3539 14.691 13.3829C14.6975 13.3902 14.704 13.3976 14.7104 13.4049C14.7381 13.4363 14.7652 13.467 14.7947 13.4961C14.7965 13.4978 14.7982 13.4995 14.7998 13.501C14.8013 13.5023 14.8029 13.5037 14.8045 13.505C14.8839 13.5709 14.9684 13.6304 15.0572 13.6828C15.0591 13.6839 15.0609 13.685 15.0628 13.6861C15.0648 13.687 15.0668 13.688 15.069 13.6891C15.1174 13.7107 15.1658 13.7318 15.2146 13.7492C15.2672 13.7679 15.3204 13.7846 15.3742 13.7993C15.5048 13.8207 15.6374 13.8309 15.7696 13.841C15.8071 13.8439 15.8445 13.8467 15.8819 13.8499ZM14.2049 14.8274L13.0835 28.235C13.079 28.2886 13.0739 28.3425 13.0687 28.3966C13.0538 28.5535 13.0388 28.7117 13.0388 28.8687C13.0456 28.9355 13.0559 29.0018 13.0696 29.0675C13.0765 29.101 13.0839 29.1346 13.0925 29.1678C13.1003 29.1912 13.1091 29.2166 13.1149 29.2304C13.15 29.3162 13.1911 29.3995 13.238 29.4796C13.2466 29.4916 13.2552 29.5034 13.2641 29.5151C13.2874 29.5456 13.3107 29.5761 13.3358 29.6052C13.3433 29.6135 13.3506 29.6218 13.3579 29.6301C13.3847 29.6603 13.411 29.6899 13.4396 29.7181C13.4419 29.7203 13.4441 29.7225 13.4461 29.7244C13.4472 29.7254 13.4483 29.7263 13.4494 29.7272C13.5288 29.7929 13.6133 29.8522 13.7021 29.9046C13.704 29.9057 13.7058 29.9067 13.7077 29.9078C13.7096 29.9088 13.7117 29.9098 13.7139 29.9108C13.7623 29.9324 13.8107 29.9535 13.8595 29.9708C13.9122 29.9896 13.9657 30.0064 14.0197 30.0211C14.1669 30.0455 14.3171 30.0565 14.467 30.0675C14.5171 30.0712 14.5672 30.0749 14.6172 30.0791L26.3708 31.0621L27.609 16.2579L15.4416 15.2403C15.0151 15.2046 14.5706 15.0669 14.2049 14.8274ZM13.0305 28.752C13.031 28.7618 13.0314 28.7717 13.0319 28.7817C13.0314 28.7718 13.0309 28.7619 13.0305 28.752ZM15.6895 11.3155L15.6585 11.3171C15.6688 11.3165 15.6791 11.316 15.6895 11.3155Z"
            fill="#333333" />
    </g>

    <g id="spoken" width="40" height="40" viewBox="0 0 40 40" fill="none" xmlns="http://www.w3.org/2000/svg">
        <path
            d="M5.52103 19.1573C15.1345 19.4656 8.977 7.04814 16.6399 7.78124C37.0062 9.72978 18.7022 26.8923 11.1406 26.8871C1.87603 26.8801 1.46358 19.0285 5.52103 19.1573Z"
            fill="#E8DFFF" />
        <path
            d="M12.5806 19.228C12.6752 17.9692 13.7724 17.0255 15.0312 17.1201L31.556 18.3627C32.8148 18.4573 33.7586 19.5545 33.6639 20.8133L32.9146 30.7789C32.8199 32.0377 31.7227 32.9814 30.4639 32.8867L16.8135 31.8603L13.9391 31.6442C12.6803 31.5495 11.7366 30.4523 11.8312 29.1935L12.5806 19.228Z"
            fill="white" stroke="#333333" stroke-width="1.25714" />
        <path
            d="M17.1523 21.0903L21.5717 21.4065L21.4899 22.549L18.5473 22.3385L18.4363 23.8907L21.0986 24.0811L21.0177 25.2129L18.3553 25.0225L18.225 26.8441L21.1999 27.0569L21.1182 28.1995L16.6665 27.881L17.1523 21.0903Z"
            fill="#8853F1" />
        <path
            d="M22.7207 21.4887L24.068 21.5851L26.151 25.331C26.2916 25.5866 26.4181 25.8376 26.5305 26.084C26.6506 26.3237 26.7348 26.5103 26.783 26.6438L26.8045 26.6453C26.7948 26.1751 26.8064 25.7101 26.8393 25.2502C26.8728 24.7831 26.9064 24.3125 26.9404 23.8382L27.0861 21.801L28.455 21.8989L27.9692 28.6896L26.6219 28.5932L24.6805 25.1391C24.5974 24.9887 24.5145 24.8347 24.4319 24.6771C24.3569 24.5129 24.2851 24.3561 24.2163 24.2067C24.1476 24.0573 24.085 23.9228 24.0285 23.8032C23.9798 23.6769 23.9439 23.5733 23.9208 23.4922L23.8992 23.4906C23.8997 23.989 23.8835 24.4682 23.8506 24.9281C23.8253 25.3813 23.7958 25.845 23.7619 26.3193L23.6146 28.378L22.2349 28.2793L22.7207 21.4887Z"
            fill="#8853F1" />
        <path d="M16.8496 31.3918L16.5453 35.4383C16.5105 35.9018 17.0141 36.2107 17.4115 35.9697L23.3736 32.3536"
            stroke="#333333" stroke-width="1.25714" />
        <path
            d="M17.3458 31.0598L17.199 33.0128L17.0011 35.6437L19.7189 33.9634L23.0919 31.9613C23.5723 31.6762 23.4002 30.942 22.843 30.9001L17.9585 30.5328C17.6438 30.5092 17.3695 30.7451 17.3458 31.0598Z"
            fill="white" />
    </g>

    <g id="maths" width="40" height="40" viewBox="0 0 40 40" fill="none" xmlns="http://www.w3.org/2000/svg">
        <path
            d="M7.61427 22.9595C18.2725 19.9808 5.54316 9.97215 14.204 8.12468C37.2131 3.22114 24.7164 26.7428 16.4116 29.3411C6.25307 32.5182 3.11849 24.2149 7.61427 22.9595Z"
            fill="#DAEFDE" />
        <rect width="18.2728" height="17.7308" rx="2.28571"
            transform="matrix(0.996623 -0.0821135 0.0832369 0.99653 12.5996 16.6165)" fill="white" />
        <path
            d="M13.232 25.324L12.6578 18.7657C12.5783 18.0813 13.8688 16.4845 14.6676 16.1993L21.5581 15.9142L22.1323 24.7537L13.232 25.324Z"
            fill="#68D787" />
        <path fill-rule="evenodd" clip-rule="evenodd"
            d="M12.0431 18.1196C11.879 16.2111 13.3032 14.5323 15.2251 14.3693L27.9813 13.2878C29.9029 13.1249 31.5932 14.5394 31.7573 16.4481L32.8463 29.1174C33.0103 31.0259 31.5861 32.7047 29.6643 32.8676L16.908 33.9492C14.9864 34.1121 13.2961 32.6976 13.1321 30.7889L12.0431 18.1196ZM22.975 22.9934L31.0926 22.3052L30.5976 16.5464C30.4883 15.2738 29.3615 14.3309 28.0803 14.4395L22.282 14.9312L22.975 22.9934ZM23.074 24.1452L23.767 32.2075L29.5653 31.7159C30.8465 31.6072 31.796 30.4883 31.6866 29.2157L31.1916 23.4569L23.074 24.1452ZM21.8153 23.0918L21.1224 15.0295L15.3241 15.5211C14.0429 15.6297 13.0934 16.7487 13.2027 18.0212L13.6977 23.78L21.8153 23.0918ZM21.9143 24.2435L13.7967 24.9318L14.2917 30.6905C14.4011 31.9631 15.5279 32.906 16.809 32.7974L22.6073 32.3058L21.9143 24.2435ZM28.0874 17.9194C28.4076 17.8922 28.6894 18.1281 28.7167 18.4461C28.7441 18.7642 28.5066 19.044 28.1864 19.0711L25.2873 19.317C24.967 19.3441 24.6853 19.1083 24.6579 18.7902C24.6306 18.4722 24.868 18.1924 25.1883 18.1652L28.0874 17.9194ZM28.9784 28.2852C29.2986 28.258 29.5804 28.4939 29.6077 28.8119C29.635 29.1299 29.3976 29.4098 29.0774 29.4369L26.1782 29.6827C25.858 29.7099 25.5762 29.4741 25.5489 29.156C25.5216 28.838 25.759 28.5581 26.0792 28.531L28.9784 28.2852ZM28.7804 25.9817C29.1006 25.9545 29.3824 26.1903 29.4097 26.5084C29.4371 26.8264 29.1996 27.1063 28.8794 27.1334L25.9802 27.3792C25.66 27.4064 25.3782 27.1706 25.3509 26.8525C25.3236 26.5345 25.561 26.2546 25.8812 26.2275L28.7804 25.9817ZM17.382 28.6883L16.2537 27.744C16.0079 27.5383 15.9766 27.1737 16.1837 26.9296C16.3908 26.6855 16.7579 26.6543 17.0037 26.86L18.132 27.8044L19.0829 26.6838C19.29 26.4397 19.6571 26.4085 19.9029 26.6142C20.1486 26.8199 20.18 27.1845 19.9729 27.4286L19.022 28.5493L20.1504 29.4936C20.3961 29.6993 20.4275 30.0639 20.2204 30.308C20.0132 30.5521 19.6461 30.5832 19.4003 30.3775L18.272 29.4332L17.3212 30.5538C17.1141 30.7979 16.747 30.829 16.5012 30.6233C16.2554 30.4177 16.2241 30.053 16.4312 29.8089L17.382 28.6883Z"
            fill="#333333" />
        <path
            d="M18.1382 21.0833L18.0392 19.9316L19.1989 19.8332C19.5191 19.8061 19.7565 19.5262 19.7292 19.2082C19.7019 18.8901 19.4201 18.6543 19.0999 18.6815L17.9402 18.7798L17.8412 17.628C17.8139 17.31 17.5321 17.0742 17.2119 17.1013C16.8917 17.1285 16.6542 17.4083 16.6816 17.7264L16.7806 18.8781L15.6209 18.9764C15.3007 19.0036 15.0632 19.2834 15.0906 19.6015C15.1179 19.9195 15.3997 20.1553 15.7199 20.1282L16.8796 20.0299L16.9786 21.1816C17.0059 21.4997 17.2877 21.7355 17.6079 21.7083C17.9281 21.6812 18.1656 21.4014 18.1382 21.0833Z"
            fill="white" />
    </g>

    <g id="english-superstar" width="40" height="40" viewBox="0 0 40 40" fill="none" xmlns="http://www.w3.org/2000/svg">
        <path d="M3.63983 17.0359C17.9292 17.4962 8.77676 -1.04818 20.1669 0.0466481C50.4393 2.95665 23.2322 28.5875 11.9928 28.5797C-1.77808 28.5693 -2.39114 16.8435 3.63983 17.0359Z" fill="#FFD9D9"/>
        <path fill-rule="evenodd" clip-rule="evenodd" d="M27.8137 12.1551L26.2299 10.3669V7.76118C26.2299 6.30506 24.8248 4.90003 23.3687 4.90003H20.7375L18.9493 3.31618C17.9274 2.29434 16.2158 2.29434 15.194 3.31618L13.4058 4.90003H10.8256C9.36952 4.90003 7.96449 6.30506 7.96449 7.76118V10.3669L6.38064 12.1551C5.3588 13.1769 5.3588 14.8885 6.38064 15.9104L7.96449 17.6986V20.3043C7.96449 21.7604 9.36952 23.1654 10.8256 23.1654H13.4313L15.2195 24.7493C16.2414 25.7711 17.953 25.7711 18.9748 24.7493L20.763 23.1654H23.3687C24.8248 23.1654 26.2299 21.7604 26.2299 20.3043V17.673L27.8137 15.8848C28.8356 14.863 28.8356 13.1769 27.8137 12.1551Z" fill="white"/>
        <mask id="mask0_430_8009" maskUnits="userSpaceOnUse" x="5" y="2" width="24" height="24">
        <path fill-rule="evenodd" clip-rule="evenodd" d="M27.8137 12.1551L26.2299 10.3669V7.76118C26.2299 6.30506 24.8248 4.90003 23.3687 4.90003H20.7375L18.9493 3.31618C17.9274 2.29434 16.2158 2.29434 15.194 3.31618L13.4058 4.90003H10.8256C9.36952 4.90003 7.96449 6.30506 7.96449 7.76118V10.3669L6.38064 12.1551C5.3588 13.1769 5.3588 14.8885 6.38064 15.9104L7.96449 17.6986V20.3043C7.96449 21.7604 9.36952 23.1654 10.8256 23.1654H13.4313L15.2195 24.7493C16.2414 25.7711 17.953 25.7711 18.9748 24.7493L20.763 23.1654H23.3687C24.8248 23.1654 26.2299 21.7604 26.2299 20.3043V17.673L27.8137 15.8848C28.8356 14.863 28.8356 13.1769 27.8137 12.1551Z" fill="white"/>
        </mask>
        <g mask="url(#mask0_430_8009)">
        <circle cx="15.5661" cy="16.0739" r="9.95186" fill="#C1A1FF"/>
        </g>
        <path fill-rule="evenodd" clip-rule="evenodd" d="M27.8137 12.1551L26.2299 10.3669V7.76118C26.2299 6.30506 24.8248 4.90003 23.3687 4.90003H20.7375L18.9493 3.31618C17.9274 2.29434 16.2158 2.29434 15.194 3.31618L13.4058 4.90003H10.8256C9.36952 4.90003 7.96449 6.30506 7.96449 7.76118V10.3669L6.38064 12.1551C5.3588 13.1769 5.3588 14.8885 6.38064 15.9104L7.96449 17.6986V20.3043C7.96449 21.7604 9.36952 23.1654 10.8256 23.1654H13.4313L15.2195 24.7493C16.2414 25.7711 17.953 25.7711 18.9748 24.7493L20.763 23.1654H23.3687C24.8248 23.1654 26.2299 21.7604 26.2299 20.3043V17.673L27.8137 15.8848C28.8356 14.863 28.8356 13.1769 27.8137 12.1551Z" stroke="#333333" stroke-width="1.2"/>
        <path d="M13.5282 16.1816C13.3202 16.1816 13.1602 16.1256 13.0482 16.0136C12.9362 15.9016 12.8802 15.7416 12.8802 15.5336V11.1896C12.8802 10.9816 12.9362 10.8216 13.0482 10.7096C13.1602 10.5976 13.3202 10.5416 13.5282 10.5416H16.3202C16.4802 10.5416 16.6002 10.5843 16.6802 10.6696C16.7655 10.7496 16.8082 10.867 16.8082 11.0216C16.8082 11.1816 16.7655 11.3043 16.6802 11.3896C16.6002 11.4696 16.4802 11.5096 16.3202 11.5096H14.0642V12.8296H16.1362C16.3015 12.8296 16.4242 12.8723 16.5042 12.9576C16.5895 13.0376 16.6322 13.1576 16.6322 13.3176C16.6322 13.4776 16.5895 13.6003 16.5042 13.6856C16.4242 13.7656 16.3015 13.8056 16.1362 13.8056H14.0642V15.2136H16.3202C16.4802 15.2136 16.6002 15.2563 16.6802 15.3416C16.7655 15.4216 16.8082 15.539 16.8082 15.6936C16.8082 15.8536 16.7655 15.9763 16.6802 16.0616C16.6002 16.1416 16.4802 16.1816 16.3202 16.1816H13.5282ZM18.2279 16.2536C18.0306 16.2536 17.8786 16.2003 17.7719 16.0936C17.6706 15.987 17.6199 15.835 17.6199 15.6376V12.7976C17.6199 12.6003 17.6706 12.451 17.7719 12.3496C17.8786 12.243 18.0252 12.1896 18.2119 12.1896C18.4039 12.1896 18.5506 12.243 18.6519 12.3496C18.7532 12.451 18.8039 12.6003 18.8039 12.7976V13.2536L18.7159 12.9896C18.8386 12.7283 19.0199 12.5283 19.2599 12.3896C19.5052 12.2456 19.7826 12.1736 20.0919 12.1736C20.4066 12.1736 20.6652 12.235 20.8679 12.3576C21.0706 12.475 21.2226 12.6563 21.3239 12.9016C21.4252 13.1416 21.4759 13.4483 21.4759 13.8216V15.6376C21.4759 15.835 21.4226 15.987 21.3159 16.0936C21.2146 16.2003 21.0652 16.2536 20.8679 16.2536C20.6759 16.2536 20.5266 16.2003 20.4199 16.0936C20.3186 15.987 20.2679 15.835 20.2679 15.6376V13.8776C20.2679 13.6056 20.2172 13.411 20.1159 13.2936C20.0199 13.171 19.8706 13.1096 19.6679 13.1096C19.4119 13.1096 19.2066 13.1896 19.0519 13.3496C18.9026 13.5096 18.8279 13.723 18.8279 13.9896V15.6376C18.8279 16.0483 18.6279 16.2536 18.2279 16.2536Z" fill="#333333"/>
        <ellipse cx="25.3697" cy="21.4946" rx="4.22366" ry="4.1298" transform="rotate(-4.7232 25.3697 21.4946)" fill="#68F9C5"/>
        <path d="M27.9789 24.6296C26.2319 26.0588 23.9777 25.5579 23.1289 25.0303L23.4667 29.1187L25.7923 27.7159L28.2968 28.4775L27.9789 24.6296Z" fill="#FFDA49"/>
        <path d="M25.7148 25.6758C28.0113 25.486 29.7191 23.4706 29.5294 21.1741C29.3396 18.8777 27.3242 17.1698 25.0277 17.3596C22.7313 17.5493 21.0234 19.5648 21.2132 21.8612C21.4029 24.1577 23.4184 25.8655 25.7148 25.6758Z" stroke="#333333" stroke-width="1.2" stroke-linecap="round" stroke-linejoin="round"/>
        <path d="M25.5199 23.3166C26.513 23.2346 27.2514 22.3631 27.1694 21.37C27.0873 20.377 26.2158 19.6385 25.2228 19.7206C24.2298 19.8026 23.4913 20.6741 23.5734 21.6672C23.6554 22.6602 24.5269 23.3987 25.5199 23.3166Z" fill="white" stroke="#333333" stroke-width="1.2" stroke-linecap="round" stroke-linejoin="round"/>
        <path d="M28.1416 24.6385L28.3852 27.5873C28.4311 28.143 27.8761 28.5528 27.3585 28.3454L25.8869 27.7556L24.5327 28.5787C24.0562 28.8683 23.4414 28.5552 23.3955 27.9994L23.1519 25.0511" stroke="#333333" stroke-width="1.2" stroke-linecap="round" stroke-linejoin="round"/>
    </g>
</svg>