<svg width="40" height="40" viewBox="0 0 40 40" fill="none" xmlns="http://www.w3.org/2000/svg">
<rect width="40" height="40" fill="white"/>
<path d="M34.1192 27.1548C26.0356 24.3397 29.5985 36.2625 23.2897 33.613C6.50786 26.5702 24.9808 17.2324 31.4085 19.2543C39.2712 21.7249 37.5315 28.3438 34.1192 27.1548Z" fill="#FFF0E9"/>
<path d="M12.3446 14.23H24.6258C24.6258 14.23 25.036 16.6675 27.0486 16.3827V24.0199C27.0486 24.0199 24.8719 23.9388 24.9138 26.1329H12.1889C12.1889 26.1329 12.1487 23.4105 9.52002 24.1011V16.5052C9.52002 16.5052 12.0985 16.8712 12.3446 14.23Z" fill="#FF693D"/>
<path d="M30.2734 9.43092C30.2348 9.43123 30.1965 9.42332 30.1612 9.40773C30.1256 9.39341 30.0933 9.37223 30.066 9.34542C30.0388 9.31861 30.0172 9.2867 30.0026 9.25156C29.9879 9.21642 29.9805 9.17875 29.9807 9.14074C29.9809 9.10274 29.9888 9.06515 30.0039 9.03018L30.7087 7.35105C30.7387 7.28012 30.796 7.22388 30.8679 7.19469C30.9398 7.16549 31.0205 7.16575 31.0922 7.19539C31.1639 7.22504 31.2208 7.28164 31.2503 7.35276C31.2798 7.42388 31.2795 7.50367 31.2495 7.5746L30.5447 9.25207C30.5223 9.30497 30.4846 9.35016 30.4363 9.38197C30.3881 9.41378 30.3314 9.43081 30.2734 9.43092Z" fill="#FFBD00"/>
<path d="M34.2563 12.599H34.2446L32.4028 12.5278C32.3644 12.5263 32.3266 12.5173 32.2916 12.5013C32.2567 12.4853 32.2252 12.4627 32.1991 12.4347C32.173 12.4068 32.1527 12.374 32.1394 12.3382C32.1261 12.3025 32.12 12.2645 32.1216 12.2264C32.1231 12.1884 32.1322 12.151 32.1483 12.1164C32.1645 12.0818 32.1874 12.0507 32.2157 12.0249C32.2728 11.9727 32.3486 11.9452 32.4263 11.9482L34.268 12.0194C34.3457 12.021 34.4197 12.053 34.4735 12.1084C34.5274 12.1638 34.5567 12.2382 34.5552 12.315C34.5536 12.3919 34.5213 12.465 34.4652 12.5182C34.4092 12.5715 34.3341 12.6006 34.2563 12.599Z" fill="#FFBD00"/>
<path d="M31.5794 10.8137C31.5173 10.8134 31.4569 10.7936 31.4069 10.7571C31.3569 10.7206 31.3199 10.6694 31.3013 10.6108C31.2827 10.5522 31.2834 10.4893 31.3033 10.4311C31.3232 10.3729 31.3612 10.3225 31.4119 10.2871L32.9088 9.23557C32.9721 9.20056 33.0463 9.19003 33.117 9.20601C33.1878 9.22199 33.25 9.26334 33.2916 9.32206C33.3333 9.38078 33.3514 9.4527 33.3426 9.5239C33.3337 9.5951 33.2985 9.66053 33.2437 9.70751L31.7368 10.759C31.6909 10.7922 31.6361 10.8112 31.5794 10.8137Z" fill="#FFBD00"/>
<path d="M6.83435 10.4959C6.75693 10.4959 6.68266 10.4656 6.62776 10.4116C6.57286 10.3576 6.54179 10.2843 6.54135 10.2078L6.52796 6.28979C6.52774 6.25181 6.5351 6.21417 6.54964 6.17902C6.56419 6.14387 6.58562 6.11191 6.6127 6.08498C6.63977 6.05805 6.67195 6.03668 6.70741 6.02209C6.74287 6.00751 6.78089 6 6.81929 6C6.89658 6.00043 6.97061 6.03087 7.02541 6.08477C7.08022 6.13866 7.11142 6.2117 7.1123 6.28814L7.12569 10.2061C7.12569 10.2827 7.09504 10.3561 7.04046 10.4104C6.98587 10.4647 6.91177 10.4955 6.83435 10.4959Z" fill="#00202B"/>
<path d="M4.65434 8.56491C4.57663 8.56491 4.5021 8.53437 4.44715 8.48003C4.3922 8.42568 4.36133 8.35197 4.36133 8.27512C4.36133 8.19826 4.3922 8.12455 4.44715 8.0702C4.5021 8.01586 4.57663 7.98532 4.65434 7.98532L8.67273 7.96545C8.75044 7.96545 8.82498 7.99598 8.87993 8.05033C8.93488 8.10467 8.96573 8.17839 8.96573 8.25524C8.96573 8.3321 8.93488 8.40581 8.87993 8.46016C8.82498 8.5145 8.75044 8.54504 8.67273 8.54504L4.65434 8.56491Z" fill="#00202B"/>
<path d="M4.14022 13.3639C3.91497 13.3642 3.69467 13.2985 3.50722 13.1749C3.31976 13.0514 3.17357 12.8757 3.08714 12.6699C3.00071 12.4642 2.97793 12.2377 3.02168 12.0192C3.06542 11.8007 3.17371 11.5999 3.33287 11.4422C3.49204 11.2846 3.6949 11.1772 3.9158 11.1336C4.13671 11.09 4.36573 11.1122 4.57386 11.1974C4.782 11.2826 4.95992 11.4269 5.0851 11.6121C5.21027 11.7973 5.2771 12.0151 5.2771 12.2379C5.27665 12.5361 5.15678 12.822 4.94372 13.033C4.73066 13.2441 4.44175 13.363 4.14022 13.3639ZM4.14022 11.6931C4.0308 11.6927 3.92374 11.7245 3.83262 11.7845C3.7415 11.8444 3.67042 11.9297 3.6284 12.0296C3.58637 12.1295 3.57529 12.2396 3.59655 12.3457C3.61782 12.4519 3.67049 12.5494 3.74786 12.6259C3.82523 12.7024 3.92382 12.7545 4.03116 12.7756C4.13849 12.7966 4.24973 12.7856 4.35076 12.7441C4.45179 12.7025 4.53807 12.6322 4.59866 12.5421C4.65924 12.452 4.69141 12.3461 4.69108 12.2379C4.69064 12.0935 4.63246 11.9552 4.52925 11.8531C4.42604 11.751 4.28618 11.6935 4.14022 11.6931Z" fill="#68D787"/>
<path d="M29.5903 28.4993H7.11914V11.5574H29.5903V28.4993ZM7.70516 27.9131H29.0077V12.137H7.70516V27.9131Z" fill="#00202B"/>
<path d="M23.9997 21.528H12.8721V22.1075H23.9997V21.528Z" fill="white"/>
<path d="M22.101 18.6068H14.1814V19.1864H22.101V18.6068Z" fill="white"/>
</svg>
