<svg width="80" height="80" viewBox="0 0 80 80" fill="none" xmlns="http://www.w3.org/2000/svg"><mask id="a" style="mask-type:alpha" maskUnits="userSpaceOnUse" x="3" y="7" width="73" height="73"><path d="M39.5 80C59.658 80 76 63.744 76 43.69 76 23.64 59.658 7.383 39.5 7.383S3 23.639 3 43.69C3 63.744 19.342 80 39.5 80Z" fill="#ED724B"/></mask><g mask="url(#a)"><path d="M39.5 80C59.658 80 76 63.744 76 43.69 76 23.64 59.658 7.383 39.5 7.383S3 23.639 3 43.69C3 63.744 19.342 80 39.5 80Z" fill="#FF693D"/><path d="M47.016 52.052a.682.682 0 0 1 .89.315c.409.559.866 1.094 1.287 1.653a.502.502 0 0 0 .421.245c2.767.066 5.486.725 7.972 1.933a34.793 34.793 0 0 1 11.297 7.918 1.303 1.303 0 0 1 .363 1.41 19.272 19.272 0 0 1-5.643 8.78 29.82 29.82 0 0 1-14.164 6.87 41.027 41.027 0 0 1-11.121.792 46.07 46.07 0 0 1-19.9-5.718 35.211 35.211 0 0 1-11.239-9.525c-.433-.582-.433-.769 0-1.34a26.867 26.867 0 0 1 6.053-5.682 32.626 32.626 0 0 1 11.226-5.45c.246-.07.328-.244.445-.419a13.077 13.077 0 0 1 2.54-2.841.644.644 0 0 1 .772-.129c.123.188.207.398.246.618.118.76.339 1.5.656 2.2a30.117 30.117 0 0 0 4.565 7.174c.96 1.164 1.955 2.329 2.798 3.493.42.642.947 1.21 1.557 1.677.15-.557.251-1.126.304-1.7.04-.645.142-1.284.305-1.91.8-2.319 2.22-4.376 4.108-5.95.832-.78 1.803-1.398 2.67-2.131.404-.25.72-.621.9-1.06.15-.448.385-.863.692-1.223Z" fill="#01202B"/><path d="M47.366 20.285a.07.07 0 0 1-.117 0v-.058l.117.058Z" fill="#fff"/></g><path d="M47.072 52.015a3.662 3.662 0 0 0-.662 1.167c-.18.44-.493.812-.897 1.064-.863.737-1.832 1.358-2.66 2.142a13.458 13.458 0 0 0-4.106 6.026 10.06 10.06 0 0 0-.39 1.947c-.05.574-.15 1.143-.296 1.701a6.814 6.814 0 0 1-1.565-1.67c-.848-1.242-1.847-2.32-2.812-3.481a30.117 30.117 0 0 1-4.597-7.154 8.515 8.515 0 0 1-.665-2.198c-.04-.22-.125-.43-.248-.616.14-.164.092-.361.08-.548a4.52 4.52 0 0 1 .28-2.854.406.406 0 0 0-.143-.558 6.05 6.05 0 0 1-1.987-1.843c-.164-.058-.273-.814-.378-.965-.79-1.161-1.178-1.555-1.09-2.907a5.41 5.41 0 0 0-.091-2.084c-.19-.651-.448-.825-.487-1.511 0-.198-.725.003-.878.003-.69.12-1.172-.414-1.887-.55a2.168 2.168 0 0 1-1.797-1.378 3.16 3.16 0 0 0-.4-.733c-1.18-1.776-.954-3.92-.589-6.006.1-.5.305-.973.603-1.388 1.059-1.495 2.334-1.629 3.745-.319.067-.606.112-1.165.18-1.712.084-.778.238-1.546.458-2.296a2.045 2.045 0 0 1 1.06-1.286 2.1 2.1 0 0 0 .835-1.622c.057-.431.114-.793.593-.934.13 0 .187-.153.245-.258l1.279-2.031a.974.974 0 0 0 .162-.49 2.203 2.203 0 0 1 .836-1.517.502.502 0 0 1 .589-.13c.066.029.124.072.172.126a1.372 1.372 0 0 0 1.71.11c2.558-1.106 5.094-2.247 7.64-3.375a4.02 4.02 0 0 1 1.17-.343c.304-.001.632-.003.716.37.083.372-.197.501-.501.607-1.07.397-2.112.864-3.12 1.4-.093 0-.198.093-.21.245.266.055.537.081.809.078.96.074 1.89.377 2.706.884a5.964 5.964 0 0 1 1.989 2.03c.199.293.329.627.379.977.002.512.307.616.752.602.444-.013 1.018-.004 1.533-.007.331-.018.664-.02.995-.004.925.113 1.173.508 1.06 1.405v.058a.07.07 0 0 0 .059.03.071.071 0 0 0 .058-.03c1.17-.192 2.245-.558 3.392-.726.385-.12.748-.303 1.074-.54.806-.422 1.252-.296 1.653.506.07.117.172.214.294.278a1.586 1.586 0 0 1 .722 1.767c-.32 1.643-.454 3.309-.705 4.952-.056.384.073.512.46.743 1.174.647 3.257.568 3.522 2.232.215.729.282 1.493.197 2.247a19.715 19.715 0 0 1-.98 3.626 11.765 11.765 0 0 1-2.33 2.339 2.348 2.348 0 0 1-2.341.231c-.387-.173-.576-.498-.668-.242a40.6 40.6 0 0 0-1.234 4.28 9.853 9.853 0 0 1-2.32 4.935c-.315.316-1.168.715-1.166 1.17.007 1.455.093 2.584.193 4.028Z" fill="#fff"/><path d="M47.366 20.285a.07.07 0 0 1-.117 0v-.058l.117.058Z" fill="#fff"/><path d="M46.711 53.508a26.907 26.907 0 0 1-.293-4.285c-.175-.07-.222 0-.28.116-.738.932-1.663 1.689-2.47 2.562a4.706 4.706 0 0 1-5.022 1.258.552.552 0 0 0-.434 0 4.705 4.705 0 0 1-5.244-1.165c-1.077-.955-1.978-2.084-3.114-2.98-.246-.187-.538-.583-.737-.49-.2.093-.082.559-.082.85 0 .955 0 3.074-.117 4.04a8.615 8.615 0 0 1-.96-1.816c-.106-.21-.152-.198-.14-.314.07-1.165.07-2.33.058-3.494a.636.636 0 0 0-.164-.512 11.759 11.759 0 0 1-2.612-3.863c-.603-1.447-.909-3-.9-4.568 0-.28 0-.617-.082-.815-.082-.198-.468 0-.726 0a6.298 6.298 0 0 1-4.098-2.03 6.235 6.235 0 0 1-1.626-4.258 6.02 6.02 0 0 1 1.17-4.076 5.063 5.063 0 0 1 1.71-1.432c.292-.14.105-.291.07-.42-.548-1.62-.94-3.289-1.17-4.983a14.716 14.716 0 0 1 .584-7.43 5.466 5.466 0 0 1 2.776-3.212 5.525 5.525 0 0 1 4.248-.281c.293.081.457.093.468-.28.106-4.04 2.54-6.136 5.994-7.114 2.92-.753 5.993-.68 8.873.21a25.788 25.788 0 0 1 11.32 6.38 21.255 21.255 0 0 1 2.845 3.645 1.167 1.167 0 0 0 .983.57 4.97 4.97 0 0 1 3.43 1.992c1.943 2.33 1.627 4.88.913 7.488a20.339 20.339 0 0 1-3.336 6.52.976.976 0 0 0-.176 1.014 6.953 6.953 0 0 1-.379 4.558 7 7 0 0 1-3.133 3.349c-.74.41-1.592.578-2.434.477-.234 0-.246.082-.258.256-.18 1.693-.66 3.34-1.416 4.868a12.223 12.223 0 0 1-3.056 3.97.782.782 0 0 0-.292.7c0 1.292.07 2.573.222 3.854a.43.43 0 0 1-.199.477 6.633 6.633 0 0 0-.714.664Zm5.853-25.025a4.034 4.034 0 0 0-.304-1.374 10.058 10.058 0 0 1-.574-3.493c.047-.603.153-1.2.316-1.782a8.13 8.13 0 0 1-4.916-.268 30.955 30.955 0 0 1-5.666-2.736 22.05 22.05 0 0 0-4.753-2.213 7.588 7.588 0 0 0-5.771.373.995.995 0 0 0-.656.943 8.125 8.125 0 0 1-1.697 4.798 25.927 25.927 0 0 1-1.955 1.968 5.194 5.194 0 0 0-1.662 3.621c0 .187-.07.385.105.536a5.286 5.286 0 0 0-.433 1.991c-.48.117-.597-.244-.714-.582-.228-.763-.534-1.5-.913-2.2a1.432 1.432 0 0 0-1.143-.965 1.447 1.447 0 0 0-1.386.568 3.653 3.653 0 0 0-1.088 1.759 7.09 7.09 0 0 0 1.358 6.288 4.252 4.252 0 0 0 2.505 1.595c.784.175.995 0 1.088-.745a1.66 1.66 0 0 1 0-.256.582.582 0 0 1 .632-.454c.316 0 .34.256.398.512.183.835.285 1.685.305 2.539a11.11 11.11 0 0 0 2.493 6.602 72.012 72.012 0 0 0 5.853 6.067 3.42 3.42 0 0 0 2.962.99c.468-.07.62-.175.457-.664a1.158 1.158 0 0 1 .491-1.328.953.953 0 0 1 1.17.14 1.036 1.036 0 0 1 .223 1.34c-.14.279-.082.36.223.384a3.94 3.94 0 0 0 3.324-1.072c.972-.966 1.85-2.05 2.81-3.039.468-.477.96-.92 1.428-1.386a10.584 10.584 0 0 0 2.435-3.493 21.335 21.335 0 0 0 1.627-6.463c.21-.221.363-.524.667-.652a1.7 1.7 0 0 1 .48 1.432 3.523 3.523 0 0 0 2.459-.873 6.456 6.456 0 0 0 2.142-3.68 5.792 5.792 0 0 0 0-3.284 1.336 1.336 0 0 0-.723-.86 1.351 1.351 0 0 0-1.127-.013c-.461.215-.842.57-1.088 1.013-.17.362-.379.706-.621 1.025a4.28 4.28 0 0 0-.667-2.492s-.047-.07-.117-.082l.023-.035Zm-3.383-7.93 1.17-.081a5.67 5.67 0 0 0 3.513-1.502c.28-.268.714-.64.316-1.06-.398-.42-.785 0-1.077.268a5.067 5.067 0 0 1-2.342 1.164c-1.966.39-4.003.187-5.853-.582l-1.381-.5c-.152 0-.316 0-.386.139-.07.14 0 .291.199.373a11.562 11.562 0 0 0 5.841 1.781ZM34.771 3.284a6.236 6.236 0 0 0-4.117 1.459 6.176 6.176 0 0 0-2.134 3.793c0 .198-.082.442.152.5.234.059.304-.197.363-.407a5.293 5.293 0 0 1 1.635-2.723A5.34 5.34 0 0 1 33.577 4.6l1.86-.314a.458.458 0 0 0 .409-.33.45.45 0 0 0 .013-.183.488.488 0 0 0-.503-.442c-.222-.059-.386-.047-.585-.047Zm-13.463 12.96c0 .245 0 .478.317.536a.448.448 0 0 0 .526-.349c.188-.477.328-.978.515-1.467a5.08 5.08 0 0 1 2.283-2.958c.14-.07.234-.175.164-.338a.291.291 0 0 0-.363-.14 2.846 2.846 0 0 0-.445.152 6.364 6.364 0 0 0-2.016 1.946 6.328 6.328 0 0 0-.98 2.619Zm16.39-11.772c.108.007.218.007.327 0 .199 0 .433-.07.456-.338.024-.268-.152-.407-.374-.489a.904.904 0 0 0-.304-.081c-.375 0-.867-.105-.925.407-.059.512.433.384.76.478l.06.023Zm16.599 12.343a.418.418 0 0 0 .445.408c.339 0 .632-.408.608-.838 0-.257-.129-.443-.41-.431a.831.831 0 0 0-.643.861Zm-32.462 1.642c-.07-.233.082-.71-.456-.71-.539 0-.422.372-.422.664 0 .29 0 .71.527.698.527-.011.398-.29.351-.652Z" fill="#01202B"/><path d="M25.008 53.613c-1.3 4.04-.258 8.64.702 12.623.223 0 .305-.175.398-.28a38.739 38.739 0 0 1 2.447-2.142 4.46 4.46 0 0 1 5.197-.513 24.092 24.092 0 0 1 4.542 3.11c.34.29.469.244.738-.105a4.283 4.283 0 0 1 2.265-1.666 4.306 4.306 0 0 1 2.815.094c1.253.43 2.529.803 3.746 1.35.082 0 .153.093.281 0a10.429 10.429 0 0 1-.257-4.832 27.37 27.37 0 0 1 .913-3.494c.228-.883.358-1.79.386-2.701.03-.333.097-.66.2-.978.702.28.713.803.666 1.455-.128 1.502-.515 3.494-.807 4.926a15.548 15.548 0 0 0 0 4.483c.047.787.173 1.567.374 2.33 0 .174.082.395-.105.523a.517.517 0 0 1-.586 0 16.443 16.443 0 0 0-5.174-1.863 5.705 5.705 0 0 0-1.99 0 3.048 3.048 0 0 0-1.72.902 3.02 3.02 0 0 0-.82 1.753 13.601 13.601 0 0 0 .164 5.147c.07.268.199.28.41.256l1.627-.151c.304 0 .644 0 .702.36.059.362-.257.49-.562.548-.797.128-1.604.187-2.411.175a.692.692 0 0 1-.69-.664c-.27-2.05-.773-4.099-.223-6.183a.487.487 0 0 0-.176-.594 12.36 12.36 0 0 0-5.607-3.494 4.39 4.39 0 0 0-4.203 1.246c-.702.676-1.381 1.386-2.072 2.085-.468.489-.83.43-1.17-.163a18.033 18.033 0 0 1-1.23-12.25 1.662 1.662 0 0 1 .867-.956 4.34 4.34 0 0 0 .363-.337Z" fill="#808F95"/><path d="M41.431 71.43c0 .535-.316.884-.76.884a.88.88 0 0 1-.773-.943.811.811 0 0 1 .5-.774.824.824 0 0 1 .32-.064c.444 0 .725.36.713.896Z" fill="#808F95"/><path d="M25.02 28.902a3.653 3.653 0 0 1 2.259-1.502c2.62-.74 5.38-.856 8.054-.338a3.285 3.285 0 0 1 1.72.839c.176.186.364.116.574.058a3.705 3.705 0 0 1 2.821 0 .34.34 0 0 0 .387 0 5.605 5.605 0 0 1 3.512-1.071c2.189-.179 4.392.05 6.496.675a6.486 6.486 0 0 1 1.721.943l.07.117a4.28 4.28 0 0 1 .668 2.492c.088.68.088 1.369 0 2.05a12.973 12.973 0 0 1-.609 1.711l-.866 1.467c-.293.128-.445.431-.656.652a4.09 4.09 0 0 1-2.517.722 15.534 15.534 0 0 1-3.593-.326 4.318 4.318 0 0 1-1.81-.803 4.291 4.291 0 0 1-1.257-1.526 16.102 16.102 0 0 1-1.838-4.425 3.765 3.765 0 0 1-.07-1.164c0-.315-.082-.478-.398-.547a6.37 6.37 0 0 0-1.628-.082c-.199 0-.35.105-.304.326.07.692-.01 1.39-.234 2.05l-.75 1.99c-.407.844-.868 1.661-1.38 2.446a3.73 3.73 0 0 1-1.839 1.42 12.73 12.73 0 0 1-5.338.467 3.347 3.347 0 0 1-2.34-1.584 7.063 7.063 0 0 1-1.277-5.112 5.284 5.284 0 0 1 .422-1.945Zm21.516-.896a15.293 15.293 0 0 0-3.641.407c-1.335.361-1.686.897-1.346 2.213a22.23 22.23 0 0 0 1.615 4.075 3.288 3.288 0 0 0 2.646 1.816c.856.143 1.72.232 2.587.269a2.917 2.917 0 0 0 1.59-.238c.497-.227.92-.588 1.22-1.043a6.807 6.807 0 0 0 1.076-4.786c-.152-1.49-.573-1.898-2.048-2.33a15.225 15.225 0 0 0-3.7-.383Zm-15.055-.117a14.279 14.279 0 0 0-3.91.443c-1.404.36-1.802.803-1.966 2.177a7.243 7.243 0 0 0 .503 3.89c.562 1.234 1.335 2.328 2.857 2.328 1.311.038 2.621-.119 3.886-.465a2.618 2.618 0 0 0 1.627-1.235 18.804 18.804 0 0 0 1.826-4.518c.328-1.292 0-1.851-1.322-2.189a13.917 13.917 0 0 0-3.5-.43Z" fill="#8244FD"/><path d="M49.18 20.553a11.562 11.562 0 0 1-5.852-1.793c-.152-.081-.27-.198-.2-.373.071-.174.235-.186.387-.14l1.381.502c1.85.768 3.888.97 5.854.582a5.067 5.067 0 0 0 2.34-1.165c.293-.268.68-.687 1.078-.268.398.42 0 .792-.316 1.06a5.669 5.669 0 0 1-3.512 1.502l-1.16.093ZM34.77 3.284h.586a.493.493 0 0 1 .49.626.454.454 0 0 1-.408.329l-1.862.36a5.34 5.34 0 0 0-2.918 1.325 5.293 5.293 0 0 0-1.624 2.752c0 .21-.082.477-.363.407-.28-.07-.175-.303-.152-.5a6.175 6.175 0 0 1 2.12-3.823 6.236 6.236 0 0 1 4.131-1.476ZM21.309 16.244c.127-.934.462-1.829.98-2.618a6.364 6.364 0 0 1 2.016-1.946c.144-.063.293-.114.445-.152a.294.294 0 0 1 .363.14c.07.163 0 .268-.164.338a5.08 5.08 0 0 0-2.283 2.957c-.187.49-.327.99-.515 1.468a.44.44 0 0 1-.351.35.446.446 0 0 1-.175-.001c-.293-.082-.305-.314-.316-.536ZM37.639 4.448c-.328-.093-.878 0-.82-.536.059-.535.55-.419.925-.407.105.01.209.037.304.081.223.082.41.21.375.49-.035.279-.258.29-.456.337-.109.019-.218.03-.328.035ZM54.297 16.815a.824.824 0 0 1 .644-.861c.28 0 .398.174.41.43 0 .431-.27.85-.61.839a.425.425 0 0 1-.407-.245.418.418 0 0 1-.037-.163ZM21.835 18.457c0 .36 0 .629-.351.652-.351.023-.515-.373-.527-.699-.012-.326 0-.663.422-.663.421 0 .386.477.456.71ZM52.61 28.635l-.07-.117c.07.012.07.07.07.117Z" fill="#fff"/><path d="m36.796 33.234.749-1.99c.094 1.443.07 2.891-.07 4.331a4.403 4.403 0 0 1-1.007 2.212c-.796.99-.76 1.538.129 2.458a4.523 4.523 0 0 0 2.224 1.315c.293.07.644.152.538.56-.105.407-.433.372-.737.302a5.223 5.223 0 0 1-2.047-.924 5.192 5.192 0 0 1-1.465-1.696 2.052 2.052 0 0 1 .422-2.422 5.93 5.93 0 0 0 1.264-4.146ZM21.472 29.276a1.632 1.632 0 0 1 1.17.815 12.094 12.094 0 0 1 1.265 3.493.498.498 0 0 1-.386.652.551.551 0 0 1-.68-.524 9.636 9.636 0 0 0-1.17-2.41 3.353 3.353 0 0 0-.351-.454c-.152-.21-.293-.338-.585-.105-.293.233-.574 0-.609-.35a1.158 1.158 0 0 1 .42-.86 1.175 1.175 0 0 1 .926-.258ZM41.607 45.531a2.094 2.094 0 0 1-.925-.151c-.175-.07-.304-.187-.28-.384.023-.198.198-.257.386-.268 1.755-.152 2.34-.652 2.692-2.4 0-.255.152-.488.457-.477.304.012.362.292.362.536a2.956 2.956 0 0 1-1.17 2.69 2.244 2.244 0 0 1-1.522.454ZM39.945 40.57c-.281 0-.539-.104-.586-.442-.047-.338.152-.594.457-.594.303-.075.621-.075.925 0a.492.492 0 0 1 .416.483.488.488 0 0 1-.416.484c-.258.023-.515.035-.796.07ZM45.072 23.907a6.908 6.908 0 0 1-.749-.093.586.586 0 0 1-.48-.5.603.603 0 0 1 .281-.63 2.068 2.068 0 0 1 2.002 0 .618.618 0 0 1 .292.63.557.557 0 0 1-.48.488c-.269.058-.597.07-.866.105ZM31.177 23.534c-.433 0-.702 0-.82-.326a.59.59 0 0 1 .247-.733 2.278 2.278 0 0 1 1.498-.513.599.599 0 0 1 .632.454.614.614 0 0 1-.304.71c-.37.253-.805.394-1.253.408ZM53.267 33.176a6.21 6.21 0 0 1 1.088-1.886c.225-.247.485-.459.773-.629.34-.186.702-.28.983.082a.662.662 0 0 1-.152.943 5.637 5.637 0 0 0-1.463 2.026c-.223.57-.457 1.164-.68 1.7a.548.548 0 0 1-.655.396c-.328-.07-.433-.314-.445-.629v-.303a12.98 12.98 0 0 0 .55-1.7ZM46.84 30.416c0 .14 0 .326-.07.512a.826.826 0 0 1-.761.7.823.823 0 0 1-.89-.408 2.668 2.668 0 0 1-.234-2.131c.082-.28.246-.583.597-.594a1.093 1.093 0 0 1 1.03.5c.23.438.343.927.328 1.421ZM33.038 29.916a3.268 3.268 0 0 1-.246 1.467.91.91 0 0 1-.662.546.918.918 0 0 1-.825-.243 2.147 2.147 0 0 1 0-2.795.996.996 0 0 1 1.756.513c.009.17.001.342-.023.512Z" fill="#01202B"/></svg>